<svg width="106" height="81" viewBox="0 0 106 81" fill="none" xmlns="http://www.w3.org/2000/svg">
<path fill-rule="evenodd" clip-rule="evenodd" d="M100.992 6.17971L101.021 61.6764C101.021 65.3791 98.0273 68.3724 94.3247 68.3724H8.71057V73.3376H98.4671C102.624 73.3376 106 69.9612 106 65.8046L105.972 13.2587C105.957 9.99582 103.886 7.2295 100.992 6.17971Z" fill="#C8C8C8"/>
<path fill-rule="evenodd" clip-rule="evenodd" d="M101.375 61.9886L101.347 6.17982C100.552 5.89609 99.6871 5.72585 98.765 5.72585H8.68213L8.7105 68.7271H94.6652C98.3678 68.7271 101.375 65.7055 101.375 61.9886Z" fill="white"/>
<path fill-rule="evenodd" clip-rule="evenodd" d="M12.4272 14.6203C12.4272 13.9961 12.938 13.4854 13.5621 13.4854H20.4425C21.0667 13.4854 21.5774 13.9961 21.5774 14.6203C21.5774 15.2445 21.0667 15.7552 20.4425 15.7552H13.5621C12.938 15.7552 12.4272 15.2445 12.4272 14.6203Z" fill="#ABABB5"/>
<path fill-rule="evenodd" clip-rule="evenodd" d="M12.4272 18.7346C12.4272 18.1104 12.938 17.5997 13.5621 17.5997H20.4425C21.0667 17.5997 21.5774 18.1104 21.5774 18.7346C21.5774 19.3588 21.0667 19.8695 20.4425 19.8695H13.5621C12.938 19.8695 12.4272 19.3588 12.4272 18.7346Z" fill="#ABABB5"/>
<path fill-rule="evenodd" clip-rule="evenodd" d="M12.4272 22.8345C12.4272 22.2103 12.938 21.6996 13.5621 21.6996H20.4425C21.0667 21.6996 21.5774 22.2103 21.5774 22.8345C21.5774 23.4587 21.0667 23.9694 20.4425 23.9694H13.5621C12.938 23.9694 12.4272 23.4587 12.4272 22.8345Z" fill="#ABABB5"/>
<path fill-rule="evenodd" clip-rule="evenodd" d="M12.4272 26.9488C12.4272 26.3246 12.938 25.8139 13.5621 25.8139H20.4425C21.0667 25.8139 21.5774 26.3246 21.5774 26.9488C21.5774 27.573 21.0667 28.0837 20.4425 28.0837H13.5621C12.938 28.0837 12.4272 27.573 12.4272 26.9488Z" fill="#ABABB5"/>
<path fill-rule="evenodd" clip-rule="evenodd" d="M12.4272 31.0622C12.4272 30.4381 12.938 29.9274 13.5621 29.9274H20.4425C21.0667 29.9274 21.5774 30.4381 21.5774 31.0622C21.5774 31.6864 21.0667 32.197 20.4425 32.197H13.5621C12.938 32.1829 12.4272 31.6864 12.4272 31.0622Z" fill="#ABABB5"/>
<path fill-rule="evenodd" clip-rule="evenodd" d="M12.4272 35.1622C12.4272 34.538 12.938 34.0273 13.5621 34.0273H20.4425C21.0667 34.0273 21.5774 34.538 21.5774 35.1622C21.5774 35.7864 21.0667 36.2971 20.4425 36.2971H13.5621C12.938 36.2971 12.4272 35.7864 12.4272 35.1622Z" fill="#ABABB5"/>
<path fill-rule="evenodd" clip-rule="evenodd" d="M12.4272 39.2765C12.4272 38.6523 12.938 38.1416 13.5621 38.1416H20.4425C21.0667 38.1416 21.5774 38.6523 21.5774 39.2765C21.5774 39.9007 21.0667 40.4114 20.4425 40.4114H13.5621C12.938 40.3972 12.4272 39.9007 12.4272 39.2765Z" fill="#ABABB5"/>
<path fill-rule="evenodd" clip-rule="evenodd" d="M12.4272 43.3763C12.4272 42.7521 12.938 42.2414 13.5621 42.2414H20.4425C21.0667 42.2414 21.5774 42.7521 21.5774 43.3763C21.5774 44.0005 21.0667 44.5112 20.4425 44.5112H13.5621C12.938 44.5112 12.4272 44.0005 12.4272 43.3763Z" fill="#ABABB5"/>
<path fill-rule="evenodd" clip-rule="evenodd" d="M12.4272 47.4906C12.4272 46.8664 12.938 46.3557 13.5621 46.3557H20.4425C21.0667 46.3557 21.5774 46.8664 21.5774 47.4906C21.5774 48.1148 21.0667 48.6255 20.4425 48.6255H13.5621C12.938 48.6255 12.4272 48.1148 12.4272 47.4906Z" fill="#ABABB5"/>
<path fill-rule="evenodd" clip-rule="evenodd" d="M12.4272 51.5897C12.4272 50.9655 12.938 50.4548 13.5621 50.4548H20.4425C21.0667 50.4548 21.5774 50.9655 21.5774 51.5897C21.5774 52.2139 21.0667 52.7246 20.4425 52.7246H13.5621C12.938 52.7246 12.4272 52.2281 12.4272 51.5897Z" fill="#ABABB5"/>
<path fill-rule="evenodd" clip-rule="evenodd" d="M12.4272 55.704C12.4272 55.0798 12.938 54.5691 13.5621 54.5691H20.4425C21.0667 54.5691 21.5774 55.0798 21.5774 55.704C21.5774 56.3282 21.0667 56.8389 20.4425 56.8389H13.5621C12.938 56.8389 12.4272 56.3282 12.4272 55.704Z" fill="#ABABB5"/>
<path fill-rule="evenodd" clip-rule="evenodd" d="M45.5237 22.9904V23.0329C45.5237 23.1606 45.5237 23.2883 45.5096 23.416C45.5096 23.6288 45.4812 23.8274 45.467 24.0402C45.4528 24.182 45.4386 24.3239 45.4103 24.4658C45.3819 24.6785 45.3393 24.8913 45.2968 25.09C45.2684 25.2318 45.24 25.3737 45.1975 25.5155C45.1407 25.7283 45.084 25.9411 45.013 26.1397C44.9705 26.2816 44.9137 26.4235 44.857 26.5653C44.7719 26.7781 44.6868 26.9909 44.5875 27.1895C44.5165 27.3314 44.4456 27.4732 44.3747 27.6151C44.2612 27.8279 44.1477 28.0407 44.02 28.2393C43.9349 28.3812 43.8356 28.523 43.7363 28.6649C43.5802 28.8777 43.4242 29.0905 43.2681 29.2891C43.1404 29.431 43.027 29.5728 42.8993 29.7147C42.7007 29.9275 42.4879 30.1403 42.2609 30.3389C42.1049 30.4807 41.9346 30.6226 41.7644 30.7645C41.6509 30.8496 41.5374 30.9347 41.4239 31.0198C41.2395 31.1475 41.0551 31.2752 40.8706 31.3887C40.7004 31.488 40.5302 31.6015 40.3458 31.6866C40.2748 31.7291 40.1897 31.7717 40.1188 31.8001C39.6223 32.0554 39.0974 32.2682 38.5441 32.4243C37.9766 32.5945 37.3808 32.708 36.785 32.7789C36.4445 32.8073 36.1041 32.8357 35.7636 32.8357C35.4231 32.8357 35.0685 32.8215 34.7422 32.7789C34.1322 32.7222 33.5505 32.5945 32.9831 32.4243C32.4298 32.2682 31.9049 32.0554 31.4084 31.8001L31.1814 31.6866C30.997 31.5873 30.8268 31.488 30.6565 31.3887C30.4721 31.2752 30.2877 31.1475 30.1033 31.0198C29.9898 30.9347 29.8763 30.8496 29.7628 30.7645C29.5925 30.6226 29.4223 30.4949 29.2663 30.3389C29.0393 30.1403 28.8265 29.9275 28.6279 29.7147C28.5002 29.5728 28.3725 29.431 28.259 29.2891C28.0888 29.0905 27.9328 28.8777 27.7909 28.6649C27.6916 28.523 27.5923 28.3812 27.5072 28.2393C27.3795 28.0407 27.266 27.8279 27.1525 27.6151C27.0816 27.4732 27.0106 27.3314 26.9397 27.1895C26.8404 26.9909 26.7553 26.7781 26.6702 26.5653C26.6134 26.4235 26.5709 26.2816 26.5141 26.1397C26.4432 25.9269 26.3864 25.7283 26.3297 25.5155C26.2871 25.3737 26.2588 25.2318 26.2304 25.09C26.1878 24.8913 26.1453 24.6785 26.1169 24.4658C26.1027 24.3239 26.0743 24.182 26.0602 24.0402C26.0318 23.8274 26.0176 23.6288 26.0176 23.416C26.0176 23.2883 26.0034 23.1606 26.0034 23.0329V22.9904C26.0034 22.7776 26.0176 22.579 26.0318 22.3662C26.046 22.2243 26.046 22.0825 26.0743 21.9406C26.1027 21.7278 26.1311 21.515 26.1595 21.3164C26.1878 21.1745 26.2162 21.0327 26.2446 20.8908C26.2871 20.678 26.3439 20.4652 26.4006 20.2666C26.4432 20.1248 26.4857 19.9829 26.5283 19.841C26.5992 19.6282 26.6844 19.4154 26.7695 19.2168C26.8262 19.075 26.8972 18.9331 26.9539 18.7912C27.0532 18.5784 27.1667 18.3657 27.2802 18.167C27.3653 18.0252 27.4504 17.8833 27.5355 17.7415C27.6774 17.5287 27.8193 17.3159 27.9753 17.1173C28.0888 16.9754 28.2023 16.8335 28.3158 16.6917C28.5002 16.4789 28.6846 16.2661 28.8832 16.0675C29.0251 15.9256 29.1811 15.7837 29.3372 15.6419C29.5784 15.4291 29.8337 15.2305 30.0891 15.0461C30.1033 15.0319 30.1174 15.0319 30.1174 15.0177C30.3302 14.8616 30.543 14.734 30.7558 14.5921C30.8835 14.507 31.0254 14.4361 31.153 14.3651C31.4226 14.2233 31.7063 14.0814 31.99 13.9679C32.3872 13.7977 32.7986 13.6558 33.2242 13.5423C33.7066 13.4146 34.2173 13.3153 34.728 13.2586C35.0685 13.2302 35.4089 13.2018 35.7494 13.2018C36.0899 13.2018 36.4445 13.216 36.7708 13.2586C37.2815 13.3153 37.7922 13.4005 38.2746 13.5423C38.7001 13.6558 39.1115 13.7977 39.5088 13.9679C39.7925 14.0814 40.0762 14.2233 40.3458 14.3651C40.4876 14.4361 40.6153 14.507 40.743 14.5921C40.9699 14.7198 41.1827 14.8616 41.3813 15.0177C41.3955 15.0319 41.4097 15.0319 41.4097 15.0461C41.6651 15.2305 41.9204 15.4291 42.1616 15.6419C42.3176 15.7837 42.4737 15.9256 42.6156 16.0675C42.8142 16.2661 43.0128 16.4789 43.1972 16.6917C43.3107 16.8335 43.4242 16.9754 43.5377 17.1173C43.6937 17.3159 43.8356 17.5287 43.9774 17.7415C44.0626 17.8833 44.1477 18.0252 44.2328 18.167C44.3463 18.3657 44.4598 18.5784 44.5591 18.7912C44.63 18.9331 44.6868 19.075 44.7435 19.2168C44.8286 19.4154 44.9137 19.6282 44.9847 19.841C45.0272 19.9829 45.084 20.1248 45.1123 20.2666C45.1691 20.4652 45.2258 20.678 45.2684 20.8908C45.2968 21.0327 45.3251 21.1745 45.3535 21.3164C45.3961 21.5292 45.4244 21.7278 45.4386 21.9406C45.4528 22.0825 45.467 22.2243 45.4812 22.3662C45.5096 22.579 45.5237 22.7918 45.5237 22.9904Z" fill="#ABABB5"/>
<path fill-rule="evenodd" clip-rule="evenodd" d="M39.5086 14.0106H31.9757C32.3729 13.8403 32.7843 13.6985 33.2099 13.585H38.2744C38.7 13.6985 39.1114 13.8403 39.5086 14.0106Z" fill="#F0F0F3"/>
<path fill-rule="evenodd" clip-rule="evenodd" d="M41.3955 15.0604H30.1033C30.3161 14.9044 30.5289 14.7767 30.7417 14.6348H40.7572C40.97 14.7625 41.1828 14.9044 41.3955 15.0604Z" fill="#F0F0F3"/>
<path fill-rule="evenodd" clip-rule="evenodd" d="M42.6299 16.0959H28.855C28.9968 15.954 29.1529 15.8121 29.3089 15.6703H42.1901C42.3461 15.8121 42.488 15.954 42.6299 16.0959Z" fill="#F0F0F3"/>
<path fill-rule="evenodd" clip-rule="evenodd" d="M43.5518 17.1457H27.9469C28.0604 17.0039 28.1739 16.862 28.2874 16.7201H43.2113C43.3248 16.862 43.4383 17.0039 43.5518 17.1457Z" fill="#F0F0F3"/>
<path fill-rule="evenodd" clip-rule="evenodd" d="M44.2327 18.1956H27.2517C27.3368 18.0537 27.4219 17.9119 27.5071 17.77H43.9773C44.0766 17.9119 44.1618 18.0537 44.2327 18.1956Z" fill="#F0F0F3"/>
<path fill-rule="evenodd" clip-rule="evenodd" d="M44.7578 19.231H26.7412C26.798 19.0891 26.8689 18.9473 26.9256 18.8054H44.5592C44.6301 18.9615 44.701 19.0891 44.7578 19.231Z" fill="#F0F0F3"/>
<path fill-rule="evenodd" clip-rule="evenodd" d="M45.1265 20.2809H26.3722C26.4148 20.139 26.4573 19.9971 26.4999 19.8553H44.9988C45.0413 19.9971 45.0839 20.139 45.1265 20.2809Z" fill="#F0F0F3"/>
<path fill-rule="evenodd" clip-rule="evenodd" d="M45.3678 21.3307H26.1171C26.1454 21.1889 26.1738 21.047 26.2022 20.9051H45.2827C45.3111 21.047 45.3395 21.1889 45.3678 21.3307Z" fill="#F0F0F3"/>
<path fill-rule="evenodd" clip-rule="evenodd" d="M45.4955 22.3661H25.9894C26.0036 22.2243 26.0036 22.0824 26.0319 21.9406H45.453C45.4813 22.0966 45.4813 22.2243 45.4955 22.3661Z" fill="#F0F0F3"/>
<path fill-rule="evenodd" clip-rule="evenodd" d="M45.5238 22.9904V23.033C45.5238 23.1607 45.5238 23.2883 45.5096 23.416H25.9751C25.9751 23.2883 25.9609 23.1607 25.9609 23.033V22.9904H45.5238Z" fill="#F0F0F3"/>
<path fill-rule="evenodd" clip-rule="evenodd" d="M45.467 24.0403C45.4528 24.1821 45.4386 24.324 45.4102 24.4659H26.0743C26.0601 24.324 26.0318 24.1821 26.0176 24.0403H45.467Z" fill="#F0F0F3"/>
<path fill-rule="evenodd" clip-rule="evenodd" d="M45.2968 25.0901C45.2684 25.232 45.24 25.3739 45.1975 25.5157H26.2872C26.2446 25.3739 26.2162 25.232 26.1879 25.0901H45.2968Z" fill="#F0F0F3"/>
<path fill-rule="evenodd" clip-rule="evenodd" d="M45.0132 26.1256C44.9706 26.2674 44.9138 26.4093 44.8571 26.5511H26.6277C26.571 26.4093 26.5284 26.2674 26.4717 26.1256H45.0132Z" fill="#F0F0F3"/>
<path fill-rule="evenodd" clip-rule="evenodd" d="M44.6017 27.1754C44.5308 27.3173 44.4599 27.4591 44.3889 27.601H27.0959C27.0249 27.4591 26.954 27.3173 26.8831 27.1754H44.6017Z" fill="#F0F0F3"/>
<path fill-rule="evenodd" clip-rule="evenodd" d="M44.0342 28.2253C43.9491 28.3671 43.8498 28.509 43.7505 28.6509H27.7483C27.649 28.509 27.5497 28.3671 27.4646 28.2253H44.0342Z" fill="#F0F0F3"/>
<path fill-rule="evenodd" clip-rule="evenodd" d="M43.2681 29.2607C43.1404 29.4026 43.0269 29.5444 42.8992 29.6863H28.5853C28.4576 29.5444 28.3299 29.4026 28.2164 29.2607H43.2681Z" fill="#F0F0F3"/>
<path fill-rule="evenodd" clip-rule="evenodd" d="M42.261 30.3106C42.1049 30.4524 41.9347 30.5943 41.7644 30.7361H29.7203C29.55 30.5943 29.3798 30.4666 29.2238 30.3106H42.261Z" fill="#F0F0F3"/>
<path fill-rule="evenodd" clip-rule="evenodd" d="M40.8708 31.3604C40.7006 31.4597 40.5303 31.5732 40.3459 31.6583C40.275 31.7009 40.1898 31.7434 40.1189 31.7718H31.3802L31.1532 31.6583C30.9688 31.559 30.7985 31.4597 30.6283 31.3604H40.8708Z" fill="#F0F0F3"/>
<path fill-rule="evenodd" clip-rule="evenodd" d="M36.7709 32.7505C37.381 32.6938 37.9626 32.5661 38.53 32.3958H36.7709H34.7139H32.9548C33.5223 32.5661 34.1181 32.6796 34.7139 32.7505H36.7709Z" fill="#F0F0F3"/>
<path fill-rule="evenodd" clip-rule="evenodd" d="M37.2532 13.3156V32.7508H34.2457V13.3156C34.7422 13.2872 35.2388 13.2589 35.7495 13.2589C36.2602 13.2589 36.7567 13.273 37.2532 13.3156Z" fill="#F0F0F3"/>
<path fill-rule="evenodd" clip-rule="evenodd" d="M30.0608 15.0887V15.6846V16.1102V16.7344V17.16V17.7842V18.2098V18.834V19.2596V19.8838V20.3093V20.9336V21.3591V21.9833V22.4089V23.0331V23.4587V24.0829V24.5085V25.1327V25.5583V26.1825V26.6081V27.2323V27.6579V28.2821V28.7077V29.3319V29.7575V30.3817V30.8073V31.0627L30.6141 31.4315C30.7843 31.5308 30.9545 31.6443 31.1389 31.7294V31.4315V30.8073V30.3817V29.7575V29.3319V28.7077V28.2821V27.6579V27.2323V26.6081V26.1825V25.5583V25.1327V24.5085V24.0829V23.4587V23.0331V22.4089V21.9833V21.3308V20.9052V20.281V19.8554V19.2312V18.8056V18.1814V17.7558V17.1316V16.706V16.0818V15.6562V15.032V14.6064V14.3794C30.9971 14.4504 30.8694 14.5355 30.7417 14.6064C30.5148 14.7341 30.302 14.8759 30.1033 15.032L30.0608 15.0887Z" fill="#ABABB5"/>
<path fill-rule="evenodd" clip-rule="evenodd" d="M41.3953 15.0602C41.1826 14.9183 40.9698 14.7765 40.757 14.6346C40.6293 14.5495 40.4874 14.4786 40.3597 14.4076V14.6346V15.0602V15.6844V16.11V16.7342V17.1598V17.784V18.2096V18.8338V19.2594V19.8836V20.3092V20.9334V21.359V21.9832V22.4088V23.033V23.4586V24.0828V24.5084V25.1326V25.5582V26.1824V26.608V27.2322V27.6578V28.282V28.7076V29.3318V29.7573V30.3816V30.8071V31.4314V31.7293C40.5442 31.63 40.7144 31.5307 40.8846 31.4314C41.0691 31.3179 41.2535 31.1902 41.4379 31.0625V30.8071V30.3816V29.7573V29.3318V28.7076V28.282V27.6578V27.2322V26.608V26.1824V25.5582V25.1326V24.5084V24.0828V23.4586V23.033V22.4088V21.9832V21.3306V20.905V20.2808V19.8552V19.231V18.8054V18.1812V17.7556V17.1314V16.7058V16.0816V15.656V15.0886L41.3953 15.0602Z" fill="#ABABB5"/>
<path fill-rule="evenodd" clip-rule="evenodd" d="M45.4813 51.4057V51.4482C45.4813 51.5759 45.4813 51.7036 45.4671 51.8312C45.4671 52.044 45.4387 52.2426 45.4245 52.4554C45.4103 52.5973 45.3961 52.7392 45.3678 52.881C45.3394 53.0938 45.2968 53.3066 45.2543 53.5052C45.2259 53.6471 45.1975 53.7889 45.155 53.9308C45.0982 54.1436 45.0415 54.3564 44.9706 54.555C44.928 54.6969 44.8713 54.8387 44.8145 54.9806C44.7294 55.1934 44.6443 55.4062 44.545 55.6048C44.474 55.7467 44.4031 55.8885 44.3322 56.0304C44.2187 56.2432 44.1052 56.456 43.9775 56.6546C43.8924 56.7964 43.7931 56.9383 43.6938 57.0802C43.5377 57.293 43.3817 57.5058 43.2256 57.7044C43.098 57.8462 42.9845 57.9881 42.8568 58.13C42.6582 58.3427 42.4454 58.5555 42.2184 58.7541C42.0624 58.896 41.8921 59.0379 41.7219 59.1797C41.6084 59.2649 41.4949 59.35 41.3814 59.4351C41.197 59.5628 41.0126 59.6904 40.8282 59.8039C40.6579 59.9032 40.4877 60.0167 40.3033 60.1018C40.2323 60.1444 40.1472 60.187 40.0763 60.2153C39.5798 60.4707 39.0549 60.6835 38.5016 60.8395C37.9342 61.0098 37.3383 61.1233 36.7425 61.1942C36.402 61.2226 36.0616 61.2509 35.7211 61.2509C35.3806 61.2509 35.026 61.2367 34.6997 61.1942C34.0897 61.1374 33.508 61.0098 32.9406 60.8395C32.3873 60.6835 31.8624 60.4707 31.3659 60.2153L31.1389 60.1018C30.9545 60.0025 30.7843 59.9032 30.614 59.8039C30.4296 59.6904 30.2452 59.5628 30.0608 59.4351C29.9473 59.35 29.8338 59.2649 29.7203 59.1797C29.5501 59.0379 29.3798 58.9102 29.2238 58.7541C28.9968 58.5555 28.784 58.3427 28.5854 58.13C28.4577 57.9881 28.3301 57.8462 28.2166 57.7044C28.0463 57.5058 27.8903 57.293 27.7484 57.0802C27.6491 56.9383 27.5498 56.7964 27.4647 56.6546C27.337 56.456 27.2235 56.2432 27.11 56.0304C27.0391 55.8885 26.9682 55.7467 26.8972 55.6048C26.7979 55.4062 26.7128 55.1934 26.6277 54.9806C26.5709 54.8387 26.5284 54.6969 26.4716 54.555C26.4007 54.3422 26.344 54.1436 26.2872 53.9308C26.2447 53.7889 26.2163 53.6471 26.1879 53.5052C26.1454 53.3066 26.1028 53.0938 26.0744 52.881C26.0602 52.7392 26.0319 52.5973 26.0177 52.4554C25.9893 52.2426 25.9751 52.044 25.9751 51.8312C25.9751 51.7036 25.9609 51.5759 25.9609 51.4482V51.4057C25.9609 51.1929 25.9751 50.9942 25.9893 50.7815C26.0035 50.6396 26.0035 50.4977 26.0319 50.3559C26.0602 50.1431 26.0886 49.9303 26.117 49.7317C26.1454 49.5898 26.1737 49.4479 26.2021 49.3061C26.2447 49.0933 26.3014 48.8805 26.3582 48.6819C26.4007 48.54 26.4433 48.3982 26.4858 48.2563C26.5568 48.0435 26.6419 47.8307 26.727 47.6321C26.7837 47.4902 26.8547 47.3484 26.9114 47.2065C27.0107 46.9937 27.1242 46.7809 27.2377 46.5823C27.3228 46.4405 27.4079 46.2986 27.4931 46.1567C27.6349 45.9439 27.7768 45.7311 27.9328 45.5325C28.0463 45.3907 28.1598 45.2488 28.2733 45.1069C28.4577 44.8941 28.6421 44.6814 28.8408 44.4827C28.9826 44.3409 29.1387 44.199 29.2947 44.0572C29.5359 43.8444 29.7912 43.6458 30.0466 43.4613C30.0608 43.4471 30.075 43.4471 30.075 43.433C30.2878 43.2769 30.5005 43.1492 30.7133 43.0074C30.841 42.9223 30.9829 42.8513 31.1106 42.7804C31.3801 42.6385 31.6638 42.4967 31.9476 42.3832C32.3448 42.2129 32.7562 42.0711 33.1818 41.9576C33.6641 41.8299 34.1748 41.7306 34.6855 41.6739C35.026 41.6455 35.3664 41.6171 35.7069 41.6171C36.0474 41.6171 36.402 41.6313 36.7283 41.6739C37.239 41.7306 37.7497 41.8157 38.2321 41.9576C38.6577 42.0711 39.0691 42.2129 39.4663 42.3832C39.75 42.4967 40.0337 42.6385 40.3033 42.7804C40.4451 42.8513 40.5728 42.9223 40.7005 43.0074C40.9275 43.135 41.1403 43.2769 41.3389 43.433C41.3531 43.4471 41.3672 43.4471 41.3672 43.4613C41.6226 43.6458 41.878 43.8444 42.1191 44.0572C42.2752 44.199 42.4312 44.3409 42.5731 44.4827C42.7717 44.6814 42.9703 44.8941 43.1547 45.1069C43.2682 45.2488 43.3817 45.3907 43.4952 45.5325C43.6512 45.7311 43.7931 45.9439 43.935 46.1567C44.0201 46.2986 44.1052 46.4405 44.1903 46.5823C44.3038 46.7809 44.4173 46.9937 44.5166 47.2065C44.5875 47.3484 44.6443 47.4902 44.701 47.6321C44.7861 47.8307 44.8713 48.0435 44.9422 48.2563C44.9847 48.3982 45.0415 48.54 45.0699 48.6819C45.1266 48.8805 45.1834 49.0933 45.2259 49.3061C45.2543 49.4479 45.2827 49.5898 45.311 49.7317C45.3536 49.9445 45.382 50.1431 45.3961 50.3559C45.4103 50.4977 45.4245 50.6396 45.4387 50.7815C45.4671 50.9942 45.4813 51.207 45.4813 51.4057Z" fill="#ABABB5"/>
<path fill-rule="evenodd" clip-rule="evenodd" d="M39.4661 42.4258H31.9332C32.3304 42.2556 32.7418 42.1138 33.1674 42.0003H38.2319C38.6575 42.1138 39.0689 42.2556 39.4661 42.4258Z" fill="#F0F0F3"/>
<path fill-rule="evenodd" clip-rule="evenodd" d="M41.3531 43.4757H30.0608C30.2736 43.3197 30.4864 43.192 30.6992 43.0501H40.7147C40.9275 43.1778 41.1403 43.3197 41.3531 43.4757Z" fill="#F0F0F3"/>
<path fill-rule="evenodd" clip-rule="evenodd" d="M42.5874 44.5111H28.8125C28.9544 44.3693 29.1104 44.2274 29.2665 44.0855H42.1476C42.3037 44.2274 42.4455 44.3693 42.5874 44.5111Z" fill="#F0F0F3"/>
<path fill-rule="evenodd" clip-rule="evenodd" d="M43.5093 45.561H27.9044C28.0179 45.4191 28.1314 45.2773 28.2449 45.1354H43.1689C43.2824 45.2773 43.3958 45.4191 43.5093 45.561Z" fill="#F0F0F3"/>
<path fill-rule="evenodd" clip-rule="evenodd" d="M44.1902 46.6109H27.2092C27.2943 46.469 27.3795 46.3271 27.4646 46.1853H43.9349C44.0342 46.3271 44.1193 46.469 44.1902 46.6109Z" fill="#F0F0F3"/>
<path fill-rule="evenodd" clip-rule="evenodd" d="M44.7153 47.6463H26.6987C26.7555 47.5044 26.8264 47.3626 26.8832 47.2207H44.5167C44.5876 47.3767 44.6586 47.5044 44.7153 47.6463Z" fill="#F0F0F3"/>
<path fill-rule="evenodd" clip-rule="evenodd" d="M45.0839 48.6961H26.3296C26.3721 48.5543 26.4147 48.4124 26.4573 48.2705H44.9562C44.9987 48.4124 45.0413 48.5543 45.0839 48.6961Z" fill="#F0F0F3"/>
<path fill-rule="evenodd" clip-rule="evenodd" d="M45.3254 49.746H26.0746C26.103 49.6041 26.1313 49.4623 26.1597 49.3204H45.2403C45.2686 49.4623 45.297 49.6041 45.3254 49.746Z" fill="#F0F0F3"/>
<path fill-rule="evenodd" clip-rule="evenodd" d="M45.4529 50.7814H25.9468C25.961 50.6396 25.961 50.4977 25.9893 50.3558H45.4104C45.4387 50.5119 45.4387 50.6396 45.4529 50.7814Z" fill="#F0F0F3"/>
<path fill-rule="evenodd" clip-rule="evenodd" d="M45.4812 51.4057V51.4482C45.4812 51.5759 45.4812 51.7036 45.467 51.8313H25.9325C25.9325 51.7036 25.9183 51.5759 25.9183 51.4482V51.4057H45.4812Z" fill="#F0F0F3"/>
<path fill-rule="evenodd" clip-rule="evenodd" d="M45.4244 52.4555C45.4102 52.5974 45.396 52.7393 45.3676 52.8811H26.0317C26.0175 52.7393 25.9892 52.5974 25.975 52.4555H45.4244Z" fill="#F0F0F3"/>
<path fill-rule="evenodd" clip-rule="evenodd" d="M45.2542 53.5054C45.2258 53.6473 45.1974 53.7891 45.1549 53.931H26.2446C26.202 53.7891 26.1736 53.6473 26.1453 53.5054H45.2542Z" fill="#F0F0F3"/>
<path fill-rule="evenodd" clip-rule="evenodd" d="M44.9707 54.5408C44.9281 54.6827 44.8714 54.8245 44.8146 54.9664H26.5852C26.5285 54.8245 26.4859 54.6827 26.4292 54.5408H44.9707Z" fill="#F0F0F3"/>
<path fill-rule="evenodd" clip-rule="evenodd" d="M44.5591 55.5907C44.4882 55.7325 44.4173 55.8744 44.3463 56.0163H27.0532C26.9823 55.8744 26.9114 55.7325 26.8405 55.5907H44.5591Z" fill="#F0F0F3"/>
<path fill-rule="evenodd" clip-rule="evenodd" d="M43.9916 56.6405C43.9065 56.7824 43.8072 56.9243 43.7078 57.0661H27.7057C27.6064 56.9243 27.5071 56.7824 27.422 56.6405H43.9916Z" fill="#F0F0F3"/>
<path fill-rule="evenodd" clip-rule="evenodd" d="M43.2256 57.676C43.0979 57.8178 42.9844 57.9597 42.8568 58.1015H28.5428C28.4151 57.9597 28.2874 57.8178 28.174 57.676H43.2256Z" fill="#F0F0F3"/>
<path fill-rule="evenodd" clip-rule="evenodd" d="M42.2183 58.7258C42.0623 58.8677 41.8921 59.0096 41.7218 59.1514H29.6777C29.5074 59.0096 29.3372 58.8819 29.1812 58.7258H42.2183Z" fill="#F0F0F3"/>
<path fill-rule="evenodd" clip-rule="evenodd" d="M40.8282 59.7757C40.658 59.875 40.4877 59.9885 40.3033 60.0736C40.2324 60.1162 40.1472 60.1587 40.0763 60.1871H31.3376L31.1106 60.0736C30.9262 59.9743 30.7559 59.875 30.5857 59.7757H40.8282Z" fill="#F0F0F3"/>
<path fill-rule="evenodd" clip-rule="evenodd" d="M36.7285 61.1658C37.3385 61.109 37.9201 60.9814 38.4876 60.8111H36.7285H34.6715H32.9124C33.4798 60.9814 34.0756 61.0948 34.6715 61.1658H36.7285Z" fill="#F0F0F3"/>
<path fill-rule="evenodd" clip-rule="evenodd" d="M37.2107 41.7309V61.1661H34.2032V41.7309C34.6998 41.7025 35.1963 41.6741 35.707 41.6741C36.2177 41.6741 36.7142 41.6883 37.2107 41.7309Z" fill="#F0F0F3"/>
<path fill-rule="evenodd" clip-rule="evenodd" d="M30.0182 43.5038V44.0996V44.5252V45.1494V45.575V46.1991V46.6247V47.2489V47.6745V48.2987V48.7243V49.3485V49.7741V50.3983V50.8239V51.4481V51.8737V52.4979V52.9235V53.5476V53.9732V54.5974V55.023V55.6472V56.0728V56.697V57.1226V57.7468V58.1724V58.7966V59.2222V59.4775L30.5715 59.8464C30.7417 59.9457 30.9119 60.0591 31.0963 60.1443V59.7754V59.1512V58.7256V58.1014V57.6759V57.0517V56.6261V56.0019V55.5763V54.9521V54.5265V53.9023V53.4767V52.8525V52.4269V51.8311V51.4055V50.7813V50.3557V49.7315V49.3059V48.6817V48.2562V47.632V47.2064V46.5822V46.1566V45.5324V45.1068V44.4826V44.057V43.4328V43.0072V42.7803C30.9545 42.8512 30.8268 42.9221 30.6991 43.0072C30.4722 43.1349 30.2594 43.2768 30.0607 43.4328L30.0182 43.5038Z" fill="#ABABB5"/>
<path fill-rule="evenodd" clip-rule="evenodd" d="M41.3527 43.4754C41.1399 43.3336 40.9271 43.1917 40.7144 43.0499C40.5867 42.9647 40.4448 42.8938 40.3171 42.8229V43.0499V43.4754V44.0996V44.5252V45.1494V45.575V46.1992V46.6248V47.249V47.6746V48.2988V48.7244V49.3486V49.7742V50.3984V50.8239V51.4481V51.8737V52.4979V52.9235V53.5477V53.9733V54.5975V55.0231V55.6473V56.0729V56.6971V57.1226V57.7468V58.1724V58.7966V59.2222V59.8464V60.1443C40.5016 60.045 40.6718 59.9457 40.842 59.8464C41.0265 59.7329 41.2109 59.6052 41.3953 59.4776V59.2222V58.7966V58.1724V57.7468V57.1226V56.6971V56.0729V55.6473V55.0231V54.5975V53.9733V53.5477V52.9235V52.4979V51.8312V51.4056V50.7814V50.3558V49.7316V49.306V48.6818V48.2562V47.632V47.2064V46.5822V46.1567V45.5325V45.1069V44.4827V44.0571V43.4613L41.3527 43.4754Z" fill="#ABABB5"/>
<path fill-rule="evenodd" clip-rule="evenodd" d="M70.4918 22.9904V23.0329C70.4918 23.1606 70.4918 23.2883 70.4776 23.416C70.4776 23.6288 70.4492 23.8274 70.435 24.0402C70.4208 24.182 70.4066 24.3239 70.3783 24.4658C70.3499 24.6785 70.3073 24.8913 70.2648 25.09C70.2364 25.2318 70.208 25.3737 70.1655 25.5155C70.1087 25.7283 70.052 25.9411 69.981 26.1397C69.9385 26.2816 69.8817 26.4235 69.825 26.5653C69.7399 26.7781 69.6548 26.9909 69.5555 27.1895C69.4845 27.3314 69.4136 27.4732 69.3427 27.6151C69.2292 27.8279 69.1157 28.0407 68.988 28.2393C68.9029 28.3812 68.8036 28.523 68.7043 28.6649C68.5482 28.8777 68.3922 29.0905 68.2361 29.2891C68.1085 29.431 67.995 29.5728 67.8673 29.7147C67.6687 29.9275 67.4559 30.1403 67.2289 30.3389C67.0729 30.4807 66.9026 30.6226 66.7324 30.7645C66.6189 30.8496 66.5054 30.9347 66.3919 31.0198C66.2075 31.1475 66.0231 31.2752 65.8387 31.3887C65.6684 31.488 65.4982 31.6015 65.3138 31.6866C65.2428 31.7291 65.1577 31.7717 65.0868 31.8001C64.5903 32.0554 64.0654 32.2682 63.5121 32.4243C62.9447 32.5945 62.3488 32.708 61.753 32.7789C61.4125 32.8073 61.0721 32.8357 60.7316 32.8357C60.3911 32.8357 60.0365 32.8215 59.7102 32.7789C59.1002 32.7222 58.5185 32.5945 57.9511 32.4243C57.3978 32.2682 56.8729 32.0554 56.3764 31.8001L56.1494 31.6866C55.965 31.5873 55.7948 31.488 55.6245 31.3887C55.4401 31.2752 55.2557 31.1475 55.0713 31.0198C54.9578 30.9347 54.8443 30.8496 54.7308 30.7645C54.5606 30.6226 54.3903 30.4949 54.2343 30.3389C54.0073 30.1403 53.7945 29.9275 53.5959 29.7147C53.4682 29.5728 53.3405 29.431 53.2271 29.2891C53.0568 29.0905 52.9008 28.8777 52.7589 28.6649C52.6596 28.523 52.5603 28.3812 52.4752 28.2393C52.3475 28.0407 52.234 27.8279 52.1205 27.6151C52.0496 27.4732 51.9787 27.3314 51.9077 27.1895C51.8084 26.9909 51.7233 26.7781 51.6382 26.5653C51.5814 26.4235 51.5389 26.2816 51.4821 26.1397C51.4112 25.9269 51.3545 25.7283 51.2977 25.5155C51.2552 25.3737 51.2268 25.2318 51.1984 25.09C51.1559 24.8913 51.1133 24.6785 51.0849 24.4658C51.0707 24.3239 51.0424 24.182 51.0282 24.0402C50.9998 23.8274 50.9856 23.6288 50.9856 23.416C50.9856 23.2883 50.9714 23.1606 50.9714 23.0329V22.9904C50.9714 22.7776 50.9856 22.579 50.9998 22.3662C51.014 22.2243 51.014 22.0825 51.0424 21.9406C51.0707 21.7278 51.0991 21.515 51.1275 21.3164C51.1559 21.1745 51.1842 21.0327 51.2126 20.8908C51.2552 20.678 51.3119 20.4652 51.3686 20.2666C51.4112 20.1248 51.4538 19.9829 51.4963 19.841C51.5673 19.6282 51.6524 19.4154 51.7375 19.2168C51.7942 19.075 51.8652 18.9331 51.9219 18.7912C52.0212 18.5784 52.1347 18.3657 52.2482 18.167C52.3333 18.0252 52.4184 17.8833 52.5036 17.7415C52.6454 17.5287 52.7873 17.3159 52.9433 17.1173C53.0568 16.9754 53.1703 16.8335 53.2838 16.6917C53.4682 16.4789 53.6526 16.2661 53.8512 16.0675C53.9931 15.9256 54.1492 15.7837 54.3052 15.6419C54.5464 15.4291 54.8017 15.2305 55.0571 15.0461C55.0713 15.0319 55.0855 15.0319 55.0855 15.0177C55.2983 14.8616 55.511 14.734 55.7238 14.5921C55.8515 14.507 55.9934 14.4361 56.1211 14.3651C56.3906 14.2233 56.6743 14.0814 56.958 13.9679C57.3553 13.7977 57.7667 13.6558 58.1923 13.5423C58.6746 13.4146 59.1853 13.3153 59.696 13.2586C60.0365 13.2302 60.3769 13.2018 60.7174 13.2018C61.0579 13.2018 61.4125 13.216 61.7388 13.2586C62.2495 13.3153 62.7602 13.4005 63.2426 13.5423C63.6682 13.6558 64.0796 13.7977 64.4768 13.9679C64.7605 14.0814 65.0442 14.2233 65.3138 14.3651C65.4556 14.4361 65.5833 14.507 65.711 14.5921C65.938 14.7198 66.1508 14.8616 66.3494 15.0177C66.3635 15.0319 66.3777 15.0319 66.3777 15.0461C66.6331 15.2305 66.8884 15.4291 67.1296 15.6419C67.2857 15.7837 67.4417 15.9256 67.5836 16.0675C67.7822 16.2661 67.9808 16.4789 68.1652 16.6917C68.2787 16.8335 68.3922 16.9754 68.5057 17.1173C68.6617 17.3159 68.8036 17.5287 68.9454 17.7415C69.0306 17.8833 69.1157 18.0252 69.2008 18.167C69.3143 18.3657 69.4278 18.5784 69.5271 18.7912C69.598 18.9331 69.6548 19.075 69.7115 19.2168C69.7966 19.4154 69.8817 19.6282 69.9527 19.841C69.9952 19.9829 70.052 20.1248 70.0804 20.2666C70.1371 20.4652 70.1938 20.678 70.2364 20.8908C70.2648 21.0327 70.2931 21.1745 70.3215 21.3164C70.3641 21.5292 70.3924 21.7278 70.4066 21.9406C70.4208 22.0825 70.435 22.2243 70.4492 22.3662C70.4918 22.579 70.4918 22.7918 70.4918 22.9904Z" fill="#ABABB5"/>
<path fill-rule="evenodd" clip-rule="evenodd" d="M64.4907 14.0106H56.9578C57.355 13.8403 57.7664 13.6985 58.192 13.585H63.2565C63.6821 13.6985 64.0935 13.8403 64.4907 14.0106Z" fill="#F0F0F3"/>
<path fill-rule="evenodd" clip-rule="evenodd" d="M66.3636 15.0604H55.0713C55.2841 14.9044 55.4969 14.7767 55.7097 14.6348H65.7252C65.9522 14.7625 66.165 14.9044 66.3636 15.0604Z" fill="#F0F0F3"/>
<path fill-rule="evenodd" clip-rule="evenodd" d="M67.612 16.0959H53.8372C53.979 15.954 54.1351 15.8121 54.2911 15.6703H67.1723C67.3141 15.8121 67.4702 15.954 67.612 16.0959Z" fill="#F0F0F3"/>
<path fill-rule="evenodd" clip-rule="evenodd" d="M68.5198 17.1457H52.9149C53.0284 17.0039 53.1419 16.862 53.2554 16.7201H68.1794C68.307 16.862 68.4205 17.0039 68.5198 17.1457Z" fill="#F0F0F3"/>
<path fill-rule="evenodd" clip-rule="evenodd" d="M69.2148 18.1956H52.2338C52.3189 18.0537 52.404 17.9119 52.4891 17.77H68.9594C69.0445 17.9119 69.1296 18.0537 69.2148 18.1956Z" fill="#F0F0F3"/>
<path fill-rule="evenodd" clip-rule="evenodd" d="M69.7254 19.231H51.7089C51.7656 19.0891 51.8365 18.9473 51.8933 18.8054H69.541C69.6119 18.9615 69.6687 19.0891 69.7254 19.231Z" fill="#F0F0F3"/>
<path fill-rule="evenodd" clip-rule="evenodd" d="M70.0945 20.2809H51.3402C51.3828 20.139 51.4253 19.9971 51.4679 19.8553H69.9668C70.0093 19.9971 70.0661 20.139 70.0945 20.2809Z" fill="#F0F0F3"/>
<path fill-rule="evenodd" clip-rule="evenodd" d="M70.3499 21.3307H51.0991C51.1275 21.1889 51.1559 21.047 51.1842 20.9051H70.2648C70.2932 21.047 70.3215 21.1889 70.3499 21.3307Z" fill="#F0F0F3"/>
<path fill-rule="evenodd" clip-rule="evenodd" d="M70.4776 22.3661H50.9714C50.9856 22.2243 50.9856 22.0824 51.014 21.9406H70.435C70.4492 22.0966 70.4634 22.2243 70.4776 22.3661Z" fill="#F0F0F3"/>
<path fill-rule="evenodd" clip-rule="evenodd" d="M70.4917 22.9904V23.033C70.4917 23.1607 70.4917 23.2883 70.4775 23.416H50.9572C50.9572 23.2883 50.943 23.1607 50.943 23.033V22.9904H70.4917Z" fill="#F0F0F3"/>
<path fill-rule="evenodd" clip-rule="evenodd" d="M70.4348 24.0403C70.4207 24.1821 70.4065 24.324 70.3781 24.4659H51.0564C51.0422 24.324 51.0138 24.1821 50.9996 24.0403H70.4348Z" fill="#F0F0F3"/>
<path fill-rule="evenodd" clip-rule="evenodd" d="M70.2789 25.0901C70.2505 25.232 70.2221 25.3739 70.1795 25.5157H51.2692C51.2267 25.3739 51.1983 25.232 51.1699 25.0901H70.2789Z" fill="#F0F0F3"/>
<path fill-rule="evenodd" clip-rule="evenodd" d="M69.995 26.1256C69.9524 26.2674 69.8957 26.4093 69.8389 26.5511H51.5954C51.5386 26.4093 51.4961 26.2674 51.4393 26.1256H69.995Z" fill="#F0F0F3"/>
<path fill-rule="evenodd" clip-rule="evenodd" d="M69.5696 27.1754C69.4987 27.3173 69.4277 27.4591 69.3568 27.601H52.0779C52.007 27.4591 51.936 27.3173 51.8651 27.1754H69.5696Z" fill="#F0F0F3"/>
<path fill-rule="evenodd" clip-rule="evenodd" d="M69.0022 28.2253C68.9171 28.3671 68.8178 28.509 68.7185 28.6509H52.7163C52.617 28.509 52.5177 28.3671 52.4326 28.2253H69.0022Z" fill="#F0F0F3"/>
<path fill-rule="evenodd" clip-rule="evenodd" d="M68.2501 29.2607C68.1225 29.4026 68.009 29.5444 67.8813 29.6863H53.5673C53.4397 29.5444 53.312 29.4026 53.1985 29.2607H68.2501Z" fill="#F0F0F3"/>
<path fill-rule="evenodd" clip-rule="evenodd" d="M67.243 30.3106C67.087 30.4524 66.9167 30.5943 66.7465 30.7361H54.7023C54.5321 30.5943 54.3619 30.4666 54.2058 30.3106H67.243Z" fill="#F0F0F3"/>
<path fill-rule="evenodd" clip-rule="evenodd" d="M65.8529 31.3604C65.6826 31.4597 65.5124 31.5732 65.328 31.6583C65.257 31.7009 65.1719 31.7434 65.101 31.7718H56.3481L56.1211 31.6583C55.9367 31.559 55.7664 31.4597 55.5962 31.3604H65.8529Z" fill="#F0F0F3"/>
<path fill-rule="evenodd" clip-rule="evenodd" d="M61.7531 32.7505C62.3631 32.6938 62.9448 32.5661 63.5122 32.3958H61.7531H59.6961H57.937C58.5045 32.5661 59.1003 32.6796 59.6961 32.7505H61.7531Z" fill="#F0F0F3"/>
<path fill-rule="evenodd" clip-rule="evenodd" d="M62.2209 13.3156V32.7508H59.2134V13.3156C59.7099 13.2872 60.2064 13.2589 60.7171 13.2589C61.2278 13.2589 61.7244 13.273 62.2209 13.3156Z" fill="#F0F0F3"/>
<path fill-rule="evenodd" clip-rule="evenodd" d="M55.0428 15.0887V15.6846V16.1102V16.7344V17.16V17.7842V18.2098V18.834V19.2596V19.8838V20.3093V20.9336V21.3591V21.9833V22.4089V23.0331V23.4587V24.0829V24.5085V25.1327V25.5583V26.1825V26.6081V27.2323V27.6579V28.2821V28.7077V29.3319V29.7575V30.3817V30.8073V31.0627L55.5961 31.4315C55.7663 31.5308 55.9366 31.6443 56.121 31.7294V31.4315V30.8073V30.3817V29.7575V29.3319V28.7077V28.2821V27.6579V27.2323V26.6081V26.1825V25.5583V25.1327V24.5085V24.0829V23.4587V23.0331V22.4089V21.9833V21.3308V20.9052V20.281V19.8554V19.2312V18.8056V18.1814V17.7558V17.1316V16.706V16.0818V15.6562V15.032V14.6064V14.3794C55.9791 14.4504 55.8515 14.5355 55.7238 14.6064C55.4968 14.7341 55.284 14.8759 55.0854 15.032L55.0428 15.0887Z" fill="#ABABB5"/>
<path fill-rule="evenodd" clip-rule="evenodd" d="M66.3635 15.0602C66.1507 14.9183 65.9379 14.7765 65.7251 14.6346C65.5974 14.5495 65.4556 14.4786 65.3279 14.4076V14.6346V15.0602V15.6844V16.11V16.7342V17.1598V17.784V18.2096V18.8338V19.2594V19.8836V20.3092V20.9334V21.359V21.9832V22.4088V23.033V23.4586V24.0828V24.5084V25.1326V25.5582V26.1824V26.608V27.2322V27.6578V28.282V28.7076V29.3318V29.7573V30.3816V30.8071V31.4314V31.7293C65.5123 31.63 65.6825 31.5307 65.8528 31.4314C66.0372 31.3179 66.2216 31.1902 66.4061 31.0625V30.8071V30.3816V29.7573V29.3318V28.7076V28.282V27.6578V27.2322V26.608V26.1824V25.5582V25.1326V24.5084V24.0828V23.4586V23.033V22.4088V21.9832V21.3306V20.905V20.2808V19.8552V19.231V18.8054V18.1812V17.7556V17.1314V16.7058V16.0816V15.656V15.0886L66.3635 15.0602Z" fill="#ABABB5"/>
<path fill-rule="evenodd" clip-rule="evenodd" d="M70.4492 51.4057V51.4482C70.4492 51.5759 70.4492 51.7036 70.435 51.8312C70.435 52.044 70.4066 52.2426 70.3924 52.4554C70.3782 52.5973 70.364 52.7392 70.3357 52.881C70.3073 53.0938 70.2647 53.3066 70.2222 53.5052C70.1938 53.6471 70.1654 53.7889 70.1229 53.9308C70.0661 54.1436 70.0094 54.3564 69.9384 54.555C69.8959 54.6969 69.8391 54.8387 69.7824 54.9806C69.6973 55.1934 69.6122 55.4062 69.5129 55.6048C69.4419 55.7467 69.371 55.8885 69.3001 56.0304C69.1866 56.2432 69.0731 56.456 68.9454 56.6546C68.8603 56.7964 68.761 56.9383 68.6617 57.0802C68.5056 57.293 68.3496 57.5058 68.1935 57.7044C68.0659 57.8462 67.9524 57.9881 67.8247 58.13C67.6261 58.3427 67.4133 58.5555 67.1863 58.7541C67.0303 58.896 66.86 59.0379 66.6898 59.1797C66.5763 59.2649 66.4628 59.35 66.3493 59.4351C66.1649 59.5628 65.9805 59.6904 65.7961 59.8039C65.6258 59.9032 65.4556 60.0167 65.2712 60.1018C65.2002 60.1444 65.1151 60.187 65.0442 60.2153C64.5477 60.4707 64.0228 60.6835 63.4695 60.8395C62.9021 61.0098 62.3062 61.1233 61.7104 61.1942C61.3699 61.2226 61.0295 61.2509 60.689 61.2509C60.3485 61.2509 59.9939 61.2367 59.6676 61.1942C59.0576 61.1374 58.4759 61.0098 57.9085 60.8395C57.3552 60.6835 56.8303 60.4707 56.3338 60.2153L56.1068 60.1018C55.9224 60.0025 55.7522 59.9032 55.5819 59.8039C55.3975 59.6904 55.2131 59.5628 55.0287 59.4351C54.9152 59.35 54.8017 59.2649 54.6882 59.1797C54.518 59.0379 54.3477 58.9102 54.1917 58.7541C53.9647 58.5555 53.7519 58.3427 53.5533 58.13C53.4256 57.9881 53.2979 57.8462 53.1845 57.7044C53.0142 57.5058 52.8582 57.293 52.7163 57.0802C52.617 56.9383 52.5177 56.7964 52.4326 56.6546C52.3049 56.456 52.1914 56.2432 52.0779 56.0304C52.007 55.8885 51.9361 55.7467 51.8651 55.6048C51.7658 55.4062 51.6807 55.1934 51.5956 54.9806C51.5388 54.8387 51.4963 54.6969 51.4395 54.555C51.3686 54.3422 51.3119 54.1436 51.2551 53.9308C51.2126 53.7889 51.1842 53.6471 51.1558 53.5052C51.1133 53.3066 51.0707 53.0938 51.0423 52.881C51.0281 52.7392 50.9998 52.5973 50.9856 52.4554C50.9572 52.2426 50.943 52.044 50.943 51.8312C50.943 51.7036 50.9288 51.5759 50.9288 51.4482V51.4057C50.9288 51.1929 50.943 50.9942 50.9572 50.7815C50.9714 50.6396 50.9714 50.4977 50.9998 50.3559C51.0281 50.1431 51.0565 49.9303 51.0849 49.7317C51.1133 49.5898 51.1416 49.4479 51.17 49.3061C51.2126 49.0933 51.2693 48.8805 51.3261 48.6819C51.3686 48.54 51.4112 48.3982 51.4537 48.2563C51.5247 48.0435 51.6098 47.8307 51.6949 47.6321C51.7516 47.4902 51.8226 47.3484 51.8793 47.2065C51.9786 46.9937 52.0921 46.7809 52.2056 46.5823C52.2907 46.4405 52.3758 46.2986 52.461 46.1567C52.6028 45.9439 52.7447 45.7311 52.9007 45.5325C53.0142 45.3907 53.1277 45.2488 53.2412 45.1069C53.4256 44.8941 53.61 44.6814 53.8087 44.4827C53.9505 44.3409 54.1066 44.199 54.2626 44.0572C54.5038 43.8444 54.7591 43.6458 55.0145 43.4613C55.0287 43.4471 55.0429 43.4471 55.0429 43.433C55.2556 43.2769 55.4684 43.1492 55.6812 43.0074C55.8089 42.9223 55.9508 42.8513 56.0785 42.7804C56.348 42.6385 56.6317 42.4967 56.9154 42.3832C57.3127 42.2129 57.7241 42.0711 58.1497 41.9576C58.632 41.8299 59.1427 41.7306 59.6534 41.6739C59.9939 41.6455 60.3343 41.6171 60.6748 41.6171C61.0153 41.6171 61.3699 41.6313 61.6962 41.6739C62.2069 41.7306 62.7176 41.8157 63.2 41.9576C63.6256 42.0711 64.037 42.2129 64.4342 42.3832C64.7179 42.4967 65.0016 42.6385 65.2712 42.7804C65.413 42.8513 65.5407 42.9223 65.6684 43.0074C65.8954 43.135 66.1082 43.2769 66.3068 43.433C66.3209 43.4471 66.3351 43.4471 66.3351 43.4613C66.5905 43.6458 66.8458 43.8444 67.087 44.0572C67.2431 44.199 67.3991 44.3409 67.541 44.4827C67.7396 44.6814 67.9382 44.8941 68.1226 45.1069C68.2361 45.2488 68.3496 45.3907 68.4631 45.5325C68.6191 45.7311 68.761 45.9439 68.9028 46.1567C68.988 46.2986 69.0731 46.4405 69.1582 46.5823C69.2717 46.7809 69.3852 46.9937 69.4845 47.2065C69.5554 47.3484 69.6122 47.4902 69.6689 47.6321C69.754 47.8307 69.8391 48.0435 69.9101 48.2563C69.9526 48.3982 70.0094 48.54 70.0378 48.6819C70.0945 48.8805 70.1512 49.0933 70.1938 49.3061C70.2222 49.4479 70.2505 49.5898 70.2789 49.7317C70.3215 49.9445 70.3498 50.1431 70.364 50.3559C70.3782 50.4977 70.3924 50.6396 70.4066 50.7815C70.4492 50.9942 70.4492 51.207 70.4492 51.4057Z" fill="#ABABB5"/>
<path fill-rule="evenodd" clip-rule="evenodd" d="M64.4482 42.4258H56.9153C57.3125 42.2556 57.7239 42.1138 58.1495 42.0003H63.214C63.6396 42.1138 64.051 42.2556 64.4482 42.4258Z" fill="#F0F0F3"/>
<path fill-rule="evenodd" clip-rule="evenodd" d="M66.321 43.4757H55.0287C55.2415 43.3197 55.4543 43.192 55.6671 43.0501H65.6826C65.9096 43.1778 66.1224 43.3197 66.321 43.4757Z" fill="#F0F0F3"/>
<path fill-rule="evenodd" clip-rule="evenodd" d="M67.5694 44.5111H53.7946C53.9364 44.3693 54.0925 44.2274 54.2485 44.0855H67.1297C67.2715 44.2274 67.4276 44.3693 67.5694 44.5111Z" fill="#F0F0F3"/>
<path fill-rule="evenodd" clip-rule="evenodd" d="M68.4774 45.561H52.8724C52.9859 45.4191 53.0994 45.2773 53.2129 45.1354H68.1369C68.2646 45.2773 68.378 45.4191 68.4774 45.561Z" fill="#F0F0F3"/>
<path fill-rule="evenodd" clip-rule="evenodd" d="M69.1723 46.6109H52.1913C52.2764 46.469 52.3615 46.3271 52.4466 46.1853H68.9169C69.002 46.3271 69.0872 46.469 69.1723 46.6109Z" fill="#F0F0F3"/>
<path fill-rule="evenodd" clip-rule="evenodd" d="M69.6828 47.6463H51.6663C51.723 47.5044 51.7939 47.3626 51.8507 47.2207H69.4842C69.5693 47.3767 69.6261 47.5044 69.6828 47.6463Z" fill="#F0F0F3"/>
<path fill-rule="evenodd" clip-rule="evenodd" d="M70.0519 48.6961H51.2976C51.3402 48.5543 51.3827 48.4124 51.4253 48.2705H69.9242C69.9668 48.4124 70.0235 48.5543 70.0519 48.6961Z" fill="#F0F0F3"/>
<path fill-rule="evenodd" clip-rule="evenodd" d="M70.3074 49.746H51.0566C51.085 49.6041 51.1134 49.4623 51.1418 49.3204H70.2223C70.2507 49.4623 70.2791 49.6041 70.3074 49.746Z" fill="#F0F0F3"/>
<path fill-rule="evenodd" clip-rule="evenodd" d="M70.435 50.7814H50.9288C50.943 50.6396 50.943 50.4977 50.9714 50.3558H70.3924C70.4066 50.5119 70.4208 50.6396 70.435 50.7814Z" fill="#F0F0F3"/>
<path fill-rule="evenodd" clip-rule="evenodd" d="M70.4491 51.4057V51.4482C70.4491 51.5759 70.4491 51.7036 70.4349 51.8313H50.9146C50.9146 51.7036 50.9004 51.5759 50.9004 51.4482V51.4057H70.4491Z" fill="#F0F0F3"/>
<path fill-rule="evenodd" clip-rule="evenodd" d="M70.3922 52.4555C70.3781 52.5974 70.3639 52.7393 70.3355 52.8811H51.0138C50.9996 52.7393 50.9712 52.5974 50.957 52.4555H70.3922Z" fill="#F0F0F3"/>
<path fill-rule="evenodd" clip-rule="evenodd" d="M70.2362 53.5054C70.2079 53.6473 70.1795 53.7891 70.1369 53.931H51.2266C51.1841 53.7891 51.1557 53.6473 51.1273 53.5054H70.2362Z" fill="#F0F0F3"/>
<path fill-rule="evenodd" clip-rule="evenodd" d="M69.9525 54.5408C69.9099 54.6827 69.8532 54.8245 69.7965 54.9664H51.5529C51.4962 54.8245 51.4536 54.6827 51.3969 54.5408H69.9525Z" fill="#F0F0F3"/>
<path fill-rule="evenodd" clip-rule="evenodd" d="M69.527 55.5907C69.4561 55.7325 69.3851 55.8744 69.3142 56.0163H52.0353C51.9644 55.8744 51.8934 55.7325 51.8225 55.5907H69.527Z" fill="#F0F0F3"/>
<path fill-rule="evenodd" clip-rule="evenodd" d="M68.9596 56.6405C68.8745 56.7824 68.7752 56.9243 68.6759 57.0661H52.6737C52.5744 56.9243 52.4751 56.7824 52.39 56.6405H68.9596Z" fill="#F0F0F3"/>
<path fill-rule="evenodd" clip-rule="evenodd" d="M68.2076 57.676C68.08 57.8178 67.9665 57.9597 67.8388 58.1015H53.5248C53.3972 57.9597 53.2695 57.8178 53.156 57.676H68.2076Z" fill="#F0F0F3"/>
<path fill-rule="evenodd" clip-rule="evenodd" d="M67.2004 58.7258C67.0444 58.8677 66.8741 59.0096 66.7039 59.1514H54.6597C54.4895 59.0096 54.3193 58.8819 54.1632 58.7258H67.2004Z" fill="#F0F0F3"/>
<path fill-rule="evenodd" clip-rule="evenodd" d="M65.8102 59.7757C65.64 59.875 65.4698 59.9885 65.2853 60.0736C65.2144 60.1162 65.1293 60.1587 65.0584 60.1871H56.3196L56.0926 60.0736C55.9082 59.9743 55.738 59.875 55.5677 59.7757H65.8102Z" fill="#F0F0F3"/>
<path fill-rule="evenodd" clip-rule="evenodd" d="M61.7105 61.1658C62.3205 61.109 62.9022 60.9814 63.4696 60.8111H61.7105H59.6535H57.8944C58.4619 60.9814 59.0577 61.0948 59.6535 61.1658H61.7105Z" fill="#F0F0F3"/>
<path fill-rule="evenodd" clip-rule="evenodd" d="M62.1783 41.7309V61.1661H59.1708V41.7309C59.6673 41.7025 60.1638 41.6741 60.6745 41.6741C61.1852 41.6741 61.6817 41.6883 62.1783 41.7309Z" fill="#F0F0F3"/>
<path fill-rule="evenodd" clip-rule="evenodd" d="M55.0002 43.5038V44.0996V44.5252V45.1494V45.575V46.1991V46.6247V47.2489V47.6745V48.2987V48.7243V49.3485V49.7741V50.3983V50.8239V51.4481V51.8737V52.4979V52.9235V53.5476V53.9732V54.5974V55.023V55.6472V56.0728V56.697V57.1226V57.7468V58.1724V58.7966V59.2222V59.4775L55.5535 59.8464C55.7237 59.9457 55.894 60.0591 56.0784 60.1443V59.7754V59.1512V58.7256V58.1014V57.6759V57.0517V56.6261V56.0019V55.5763V54.9521V54.5265V53.9023V53.4767V52.8525V52.4269V51.8311V51.4055V50.7813V50.3557V49.7315V49.3059V48.6817V48.2562V47.632V47.2064V46.5822V46.1566V45.5324V45.1068V44.4826V44.057V43.4328V43.0072V42.7803C55.9365 42.8512 55.8089 42.9221 55.6812 43.0072C55.4542 43.1349 55.2414 43.2768 55.0428 43.4328L55.0002 43.5038Z" fill="#ABABB5"/>
<path fill-rule="evenodd" clip-rule="evenodd" d="M66.3209 43.4754C66.1081 43.3336 65.8953 43.1917 65.6825 43.0499C65.5548 42.9647 65.413 42.8938 65.2853 42.8229V43.0499V43.4754V44.0996V44.5252V45.1494V45.575V46.1992V46.6248V47.249V47.6746V48.2988V48.7244V49.3486V49.7742V50.3984V50.8239V51.4481V51.8737V52.4979V52.9235V53.5477V53.9733V54.5975V55.0231V55.6473V56.0729V56.6971V57.1226V57.7468V58.1724V58.7966V59.2222V59.8464V60.1443C65.4697 60.045 65.6399 59.9457 65.8102 59.8464C65.9946 59.7329 66.179 59.6052 66.3634 59.4776V59.2222V58.7966V58.1724V57.7468V57.1226V56.6971V56.0729V55.6473V55.0231V54.5975V53.9733V53.5477V52.9235V52.4979V51.8312V51.4056V50.7814V50.3558V49.7316V49.306V48.6818V48.2562V47.632V47.2064V46.5822V46.1567V45.5325V45.1069V44.4827V44.0571V43.4613L66.3209 43.4754Z" fill="#ABABB5"/>
<path fill-rule="evenodd" clip-rule="evenodd" d="M95.4736 22.9904V23.0329C95.4736 23.1606 95.4736 23.2883 95.4594 23.416C95.4594 23.6288 95.431 23.8274 95.4168 24.0402C95.4026 24.182 95.3885 24.3239 95.3601 24.4658C95.3317 24.6785 95.2892 24.8913 95.2466 25.09C95.2182 25.2318 95.1898 25.3737 95.1473 25.5155C95.0905 25.7283 95.0338 25.9411 94.9629 26.1397C94.9203 26.2816 94.8636 26.4235 94.8068 26.5653C94.7217 26.7781 94.6366 26.9909 94.5373 27.1895C94.4663 27.3314 94.3954 27.4732 94.3245 27.6151C94.211 27.8279 94.0975 28.0407 93.9698 28.2393C93.8847 28.3812 93.7854 28.523 93.6861 28.6649C93.5301 28.8777 93.374 29.0905 93.218 29.2891C93.0903 29.431 92.9768 29.5728 92.8491 29.7147C92.6505 29.9275 92.4377 30.1403 92.2107 30.3389C92.0547 30.4807 91.8844 30.6226 91.7142 30.7645C91.6007 30.8496 91.4872 30.9347 91.3737 31.0198C91.1893 31.1475 91.0049 31.2752 90.8205 31.3887C90.6502 31.488 90.48 31.6015 90.2956 31.6866C90.2246 31.7291 90.1395 31.7717 90.0686 31.8001C89.5721 32.0554 89.0472 32.2682 88.4939 32.4243C87.9265 32.5945 87.3306 32.708 86.7348 32.7789C86.3944 32.8073 86.0539 32.8357 85.7134 32.8357C85.3729 32.8357 85.0183 32.8215 84.692 32.7789C84.082 32.7222 83.5004 32.5945 82.9329 32.4243C82.3796 32.2682 81.8547 32.0554 81.3582 31.8001L81.1312 31.6866C80.9468 31.5873 80.7766 31.488 80.6063 31.3887C80.4219 31.2752 80.2375 31.1475 80.0531 31.0198C79.9396 30.9347 79.8261 30.8496 79.7126 30.7645C79.5424 30.6226 79.3721 30.4949 79.2161 30.3389C78.9891 30.1403 78.7763 29.9275 78.5777 29.7147C78.45 29.5728 78.3224 29.431 78.2089 29.2891C78.0386 29.0905 77.8826 28.8777 77.7407 28.6649C77.6414 28.523 77.5421 28.3812 77.457 28.2393C77.3293 28.0407 77.2158 27.8279 77.1023 27.6151C77.0314 27.4732 76.9605 27.3314 76.8895 27.1895C76.7902 26.9909 76.7051 26.7781 76.62 26.5653C76.5633 26.4235 76.5207 26.2816 76.4639 26.1397C76.393 25.9269 76.3363 25.7283 76.2795 25.5155C76.237 25.3737 76.2086 25.2318 76.1802 25.09C76.1377 24.8913 76.0951 24.6785 76.0667 24.4658C76.0525 24.3239 76.0242 24.182 76.01 24.0402C75.9816 23.8274 75.9674 23.6288 75.9674 23.416C75.9674 23.2883 75.9532 23.1606 75.9532 23.0329V22.9904C75.9532 22.7776 75.9674 22.579 75.9816 22.3662C75.9958 22.2243 75.9958 22.0825 76.0242 21.9406C76.0526 21.7278 76.0809 21.515 76.1093 21.3164C76.1377 21.1745 76.166 21.0327 76.1944 20.8908C76.237 20.678 76.2937 20.4652 76.3505 20.2666C76.393 20.1248 76.4356 19.9829 76.4781 19.841C76.5491 19.6282 76.6342 19.4154 76.7193 19.2168C76.776 19.075 76.847 18.9331 76.9037 18.7912C77.003 18.5784 77.1165 18.3657 77.23 18.167C77.3151 18.0252 77.4002 17.8833 77.4854 17.7415C77.6272 17.5287 77.7691 17.3159 77.9251 17.1173C78.0386 16.9754 78.1521 16.8335 78.2656 16.6917C78.45 16.4789 78.6345 16.2661 78.8331 16.0675C78.9749 15.9256 79.131 15.7837 79.287 15.6419C79.5282 15.4291 79.7835 15.2305 80.0389 15.0461C80.0531 15.0319 80.0673 15.0319 80.0673 15.0177C80.2801 14.8616 80.4929 14.734 80.7057 14.5921C80.8333 14.507 80.9752 14.4361 81.1029 14.3651C81.3724 14.2233 81.6561 14.0814 81.9399 13.9679C82.3371 13.7977 82.7485 13.6558 83.1741 13.5423C83.6564 13.4146 84.1671 13.3153 84.6778 13.2586C85.0183 13.2302 85.3588 13.2018 85.6992 13.2018C86.0397 13.2018 86.3943 13.216 86.7206 13.2586C87.2313 13.3153 87.7421 13.4005 88.2244 13.5423C88.65 13.6558 89.0614 13.7977 89.4586 13.9679C89.7423 14.0814 90.026 14.2233 90.2956 14.3651C90.4374 14.4361 90.5651 14.507 90.6928 14.5921C90.9198 14.7198 91.1326 14.8616 91.3312 15.0177C91.3454 15.0319 91.3595 15.0319 91.3595 15.0461C91.6149 15.2305 91.8703 15.4291 92.1114 15.6419C92.2675 15.7837 92.4235 15.9256 92.5654 16.0675C92.764 16.2661 92.9626 16.4789 93.147 16.6917C93.2605 16.8335 93.374 16.9754 93.4875 17.1173C93.6435 17.3159 93.7854 17.5287 93.9273 17.7415C94.0124 17.8833 94.0975 18.0252 94.1826 18.167C94.2961 18.3657 94.4096 18.5784 94.5089 18.7912C94.5798 18.9331 94.6366 19.075 94.6933 19.2168C94.7784 19.4154 94.8636 19.6282 94.9345 19.841C94.9771 19.9829 95.0338 20.1248 95.0622 20.2666C95.1189 20.4652 95.1757 20.678 95.2182 20.8908C95.2466 21.0327 95.275 21.1745 95.3033 21.3164C95.3459 21.5292 95.3743 21.7278 95.3885 21.9406C95.4026 22.0825 95.4168 22.2243 95.431 22.3662C95.4594 22.579 95.4736 22.7918 95.4736 22.9904Z" fill="#ABABB5"/>
<path fill-rule="evenodd" clip-rule="evenodd" d="M89.4585 14.0106H81.9255C82.3228 13.8403 82.7342 13.6985 83.1597 13.585H88.2242C88.6498 13.6985 89.0612 13.8403 89.4585 14.0106Z" fill="#F0F0F3"/>
<path fill-rule="evenodd" clip-rule="evenodd" d="M91.3454 15.0604H80.0531C80.2659 14.9044 80.4787 14.7767 80.6915 14.6348H90.707C90.9198 14.7625 91.1326 14.9044 91.3454 15.0604Z" fill="#F0F0F3"/>
<path fill-rule="evenodd" clip-rule="evenodd" d="M92.5797 16.0959H78.8048C78.9467 15.954 79.1027 15.8121 79.2588 15.6703H92.1399C92.296 15.8121 92.4378 15.954 92.5797 16.0959Z" fill="#F0F0F3"/>
<path fill-rule="evenodd" clip-rule="evenodd" d="M93.5016 17.1457H77.8967C78.0102 17.0039 78.1237 16.862 78.2372 16.7201H93.1612C93.2747 16.862 93.3882 17.0039 93.5016 17.1457Z" fill="#F0F0F3"/>
<path fill-rule="evenodd" clip-rule="evenodd" d="M94.1825 18.1956H77.2015C77.2867 18.0537 77.3718 17.9119 77.4569 17.77H93.9272C94.0265 17.9119 94.1116 18.0537 94.1825 18.1956Z" fill="#F0F0F3"/>
<path fill-rule="evenodd" clip-rule="evenodd" d="M94.7076 19.231H76.691C76.7478 19.0891 76.8187 18.9473 76.8755 18.8054H94.509C94.5799 18.9615 94.6509 19.0891 94.7076 19.231Z" fill="#F0F0F3"/>
<path fill-rule="evenodd" clip-rule="evenodd" d="M95.0763 20.2809H76.322C76.3646 20.139 76.4071 19.9971 76.4497 19.8553H94.9486C94.9912 19.9971 95.0337 20.139 95.0763 20.2809Z" fill="#F0F0F3"/>
<path fill-rule="evenodd" clip-rule="evenodd" d="M95.3177 21.3307H76.0669C76.0953 21.1889 76.1236 21.047 76.152 20.9051H95.2326C95.2609 21.047 95.2893 21.1889 95.3177 21.3307Z" fill="#F0F0F3"/>
<path fill-rule="evenodd" clip-rule="evenodd" d="M95.4454 22.3661H75.9392C75.9534 22.2243 75.9534 22.0824 75.9818 21.9406H95.4028C95.4312 22.0966 95.4312 22.2243 95.4454 22.3661Z" fill="#F0F0F3"/>
<path fill-rule="evenodd" clip-rule="evenodd" d="M95.4735 22.9904V23.033C95.4735 23.1607 95.4735 23.2883 95.4593 23.416H75.9248C75.9248 23.2883 75.9106 23.1607 75.9106 23.033V22.9904H95.4735Z" fill="#F0F0F3"/>
<path fill-rule="evenodd" clip-rule="evenodd" d="M95.4167 24.0403C95.4025 24.1821 95.3883 24.324 95.3599 24.4659H76.024C76.0098 24.324 75.9815 24.1821 75.9673 24.0403H95.4167Z" fill="#F0F0F3"/>
<path fill-rule="evenodd" clip-rule="evenodd" d="M95.2465 25.0901C95.2181 25.232 95.1898 25.3739 95.1472 25.5157H76.2369C76.1943 25.3739 76.1659 25.232 76.1376 25.0901H95.2465Z" fill="#F0F0F3"/>
<path fill-rule="evenodd" clip-rule="evenodd" d="M94.963 26.1256C94.9204 26.2674 94.8637 26.4093 94.8069 26.5511H76.5776C76.5208 26.4093 76.4783 26.2674 76.4215 26.1256H94.963Z" fill="#F0F0F3"/>
<path fill-rule="evenodd" clip-rule="evenodd" d="M94.5515 27.1754C94.4806 27.3173 94.4097 27.4591 94.3387 27.601H77.0457C76.9747 27.4591 76.9038 27.3173 76.8329 27.1754H94.5515Z" fill="#F0F0F3"/>
<path fill-rule="evenodd" clip-rule="evenodd" d="M93.984 28.2253C93.8989 28.3671 93.7996 28.509 93.7003 28.6509H77.6982C77.5989 28.509 77.4995 28.3671 77.4144 28.2253H93.984Z" fill="#F0F0F3"/>
<path fill-rule="evenodd" clip-rule="evenodd" d="M93.2179 29.2607C93.0902 29.4026 92.9767 29.5444 92.8491 29.6863H78.5351C78.4074 29.5444 78.2798 29.4026 78.1663 29.2607H93.2179Z" fill="#F0F0F3"/>
<path fill-rule="evenodd" clip-rule="evenodd" d="M92.2108 30.3106C92.0547 30.4524 91.8845 30.5943 91.7143 30.7361H79.6701C79.4999 30.5943 79.3296 30.4666 79.1736 30.3106H92.2108Z" fill="#F0F0F3"/>
<path fill-rule="evenodd" clip-rule="evenodd" d="M90.8205 31.3604C90.6503 31.4597 90.48 31.5732 90.2956 31.6583C90.2247 31.7009 90.1396 31.7434 90.0686 31.7718H81.3299L81.1029 31.6583C80.9185 31.559 80.7482 31.4597 80.578 31.3604H90.8205Z" fill="#F0F0F3"/>
<path fill-rule="evenodd" clip-rule="evenodd" d="M86.7208 32.7505C87.3308 32.6938 87.9124 32.5661 88.4799 32.3958H86.7208H84.6638H82.9047C83.4721 32.5661 84.0679 32.6796 84.6638 32.7505H86.7208Z" fill="#F0F0F3"/>
<path fill-rule="evenodd" clip-rule="evenodd" d="M87.203 13.3156V32.7508H84.1956V13.3156C84.6921 13.2872 85.1886 13.2589 85.6993 13.2589C86.21 13.2589 86.7065 13.273 87.203 13.3156Z" fill="#F0F0F3"/>
<path fill-rule="evenodd" clip-rule="evenodd" d="M80.0105 15.0887V15.6846V16.1102V16.7344V17.16V17.7842V18.2098V18.834V19.2596V19.8838V20.3093V20.9336V21.3591V21.9833V22.4089V23.0331V23.4587V24.0829V24.5085V25.1327V25.5583V26.1825V26.6081V27.2323V27.6579V28.2821V28.7077V29.3319V29.7575V30.3817V30.8073V31.0627L80.5638 31.4315C80.734 31.5308 80.9042 31.6443 81.0887 31.7294V31.4315V30.8073V30.3817V29.7575V29.3319V28.7077V28.2821V27.6579V27.2323V26.6081V26.1825V25.5583V25.1327V24.5085V24.0829V23.4587V23.0331V22.4089V21.9833V21.3308V20.9052V20.281V19.8554V19.2312V18.8056V18.1814V17.7558V17.1316V16.706V16.0818V15.6562V15.032V14.6064V14.3794C80.9468 14.4504 80.8191 14.5355 80.6914 14.6064C80.4645 14.7341 80.2517 14.8759 80.0531 15.032L80.0105 15.0887Z" fill="#ABABB5"/>
<path fill-rule="evenodd" clip-rule="evenodd" d="M91.3456 15.0602C91.1329 14.9183 90.9201 14.7765 90.7073 14.6346C90.5796 14.5495 90.4377 14.4786 90.3101 14.4076V14.6346V15.0602V15.6844V16.11V16.7342V17.1598V17.784V18.2096V18.8338V19.2594V19.8836V20.3092V20.9334V21.359V21.9832V22.4088V23.033V23.4586V24.0828V24.5084V25.1326V25.5582V26.1824V26.608V27.2322V27.6578V28.282V28.7076V29.3318V29.7573V30.3816V30.8071V31.4314V31.7293C90.4945 31.63 90.6647 31.5307 90.8349 31.4314C91.0194 31.3179 91.218 31.1902 91.3882 31.0625V30.8071V30.3816V29.7573V29.3318V28.7076V28.282V27.6578V27.2322V26.608V26.1824V25.5582V25.1326V24.5084V24.0828V23.4586V23.033V22.4088V21.9832V21.3306V20.905V20.2808V19.8552V19.231V18.8054V18.1812V17.7556V17.1314V16.7058V16.0816V15.656V15.0886L91.3456 15.0602Z" fill="#ABABB5"/>
<path fill-rule="evenodd" clip-rule="evenodd" d="M95.4311 51.4057V51.4482C95.4311 51.5759 95.4311 51.7036 95.4169 51.8312C95.4169 52.044 95.3885 52.2426 95.3743 52.4554C95.3602 52.5973 95.346 52.7392 95.3176 52.881C95.2892 53.0938 95.2467 53.3066 95.2041 53.5052C95.1757 53.6471 95.1474 53.7889 95.1048 53.9308C95.0481 54.1436 94.9913 54.3564 94.9204 54.555C94.8778 54.6969 94.8211 54.8387 94.7643 54.9806C94.6792 55.1934 94.5941 55.4062 94.4948 55.6048C94.4239 55.7467 94.3529 55.8885 94.282 56.0304C94.1685 56.2432 94.055 56.456 93.9273 56.6546C93.8422 56.7964 93.7429 56.9383 93.6436 57.0802C93.4876 57.293 93.3315 57.5058 93.1755 57.7044C93.0478 57.8462 92.9343 57.9881 92.8066 58.13C92.608 58.3427 92.3952 58.5555 92.1682 58.7541C92.0122 58.896 91.842 59.0379 91.6717 59.1797C91.5582 59.2649 91.4447 59.35 91.3313 59.4351C91.1468 59.5628 90.9624 59.6904 90.778 59.8039C90.6078 59.9032 90.4375 60.0167 90.2531 60.1018C90.1822 60.1444 90.0971 60.187 90.0261 60.2153C89.5296 60.4707 89.0047 60.6835 88.4514 60.8395C87.884 61.0098 87.2882 61.1233 86.6923 61.1942C86.3519 61.2226 86.0114 61.2509 85.6709 61.2509C85.3305 61.2509 84.9758 61.2367 84.6495 61.1942C84.0395 61.1374 83.4579 61.0098 82.8904 60.8395C82.3371 60.6835 81.8123 60.4707 81.3157 60.2153L81.0888 60.1018C80.9043 60.0025 80.7341 59.9032 80.5639 59.8039C80.3794 59.6904 80.195 59.5628 80.0106 59.4351C79.8971 59.35 79.7836 59.2649 79.6701 59.1797C79.4999 59.0379 79.3297 58.9102 79.1736 58.7541C78.9466 58.5555 78.7338 58.3427 78.5352 58.13C78.4076 57.9881 78.2799 57.8462 78.1664 57.7044C77.9961 57.5058 77.8401 57.293 77.6982 57.0802C77.5989 56.9383 77.4996 56.7964 77.4145 56.6546C77.2868 56.456 77.1733 56.2432 77.0599 56.0304C76.9889 55.8885 76.918 55.7467 76.8471 55.6048C76.7478 55.4062 76.6626 55.1934 76.5775 54.9806C76.5208 54.8387 76.4782 54.6969 76.4215 54.555C76.3505 54.3422 76.2938 54.1436 76.237 53.9308C76.1945 53.7889 76.1661 53.6471 76.1377 53.5052C76.0952 53.3066 76.0526 53.0938 76.0243 52.881C76.0101 52.7392 75.9817 52.5973 75.9675 52.4554C75.9391 52.2426 75.9249 52.044 75.9249 51.8312C75.9249 51.7036 75.9108 51.5759 75.9108 51.4482V51.4057C75.9108 51.1929 75.9249 50.9942 75.9391 50.7815C75.9533 50.6396 75.9533 50.4977 75.9817 50.3559C76.0101 50.1431 76.0384 49.9303 76.0668 49.7317C76.0952 49.5898 76.1236 49.4479 76.1519 49.3061C76.1945 49.0933 76.2512 48.8805 76.308 48.6819C76.3505 48.54 76.3931 48.3982 76.4357 48.2563C76.5066 48.0435 76.5917 47.8307 76.6768 47.6321C76.7336 47.4902 76.8045 47.3484 76.8612 47.2065C76.9605 46.9937 77.074 46.7809 77.1875 46.5823C77.2727 46.4405 77.3578 46.2986 77.4429 46.1567C77.5847 45.9439 77.7266 45.7311 77.8827 45.5325C77.9961 45.3907 78.1096 45.2488 78.2231 45.1069C78.4076 44.8941 78.592 44.6814 78.7906 44.4827C78.9324 44.3409 79.0885 44.199 79.2445 44.0572C79.4857 43.8444 79.7411 43.6458 79.9964 43.4613C80.0106 43.4471 80.0248 43.4471 80.0248 43.433C80.2376 43.2769 80.4504 43.1492 80.6632 43.0074C80.7908 42.9223 80.9327 42.8513 81.0604 42.7804C81.3299 42.6385 81.6136 42.4967 81.8974 42.3832C82.2946 42.2129 82.706 42.0711 83.1316 41.9576C83.6139 41.8299 84.1246 41.7306 84.6353 41.6739C84.9758 41.6455 85.3163 41.6171 85.6567 41.6171C85.9972 41.6171 86.3519 41.6313 86.6782 41.6739C87.1889 41.7306 87.6996 41.8157 88.1819 41.9576C88.6075 42.0711 89.0189 42.2129 89.4161 42.3832C89.6998 42.4967 89.9836 42.6385 90.2531 42.7804C90.395 42.8513 90.5226 42.9223 90.6503 43.0074C90.8773 43.135 91.0901 43.2769 91.2887 43.433C91.3029 43.4471 91.3171 43.4471 91.3171 43.4613C91.5724 43.6458 91.8278 43.8444 92.0689 44.0572C92.225 44.199 92.381 44.3409 92.5229 44.4827C92.7215 44.6814 92.9201 44.8941 93.1045 45.1069C93.218 45.2488 93.3315 45.3907 93.445 45.5325C93.6011 45.7311 93.7429 45.9439 93.8848 46.1567C93.9699 46.2986 94.055 46.4405 94.1401 46.5823C94.2536 46.7809 94.3671 46.9937 94.4664 47.2065C94.5374 47.3484 94.5941 47.4902 94.6508 47.6321C94.736 47.8307 94.8211 48.0435 94.892 48.2563C94.9346 48.3982 94.9913 48.54 95.0197 48.6819C95.0764 48.8805 95.1332 49.0933 95.1757 49.3061C95.2041 49.4479 95.2325 49.5898 95.2609 49.7317C95.3034 49.9445 95.3318 50.1431 95.346 50.3559C95.3602 50.4977 95.3743 50.6396 95.3885 50.7815C95.4169 50.9942 95.4311 51.207 95.4311 51.4057Z" fill="#ABABB5"/>
<path fill-rule="evenodd" clip-rule="evenodd" d="M89.416 42.4258H81.8831C82.2803 42.2556 82.6917 42.1138 83.1173 42.0003H88.1818C88.6074 42.1138 89.0188 42.2556 89.416 42.4258Z" fill="#F0F0F3"/>
<path fill-rule="evenodd" clip-rule="evenodd" d="M91.3029 43.4757H80.0106C80.2234 43.3197 80.4362 43.192 80.649 43.0501H90.6645C90.8773 43.1778 91.0901 43.3197 91.3029 43.4757Z" fill="#F0F0F3"/>
<path fill-rule="evenodd" clip-rule="evenodd" d="M92.5372 44.5111H78.7623C78.9042 44.3693 79.0602 44.2274 79.2163 44.0855H92.0974C92.2535 44.2274 92.3953 44.3693 92.5372 44.5111Z" fill="#F0F0F3"/>
<path fill-rule="evenodd" clip-rule="evenodd" d="M93.4592 45.561H77.8542C77.9677 45.4191 78.0812 45.2773 78.1947 45.1354H93.1187C93.2322 45.2773 93.3457 45.4191 93.4592 45.561Z" fill="#F0F0F3"/>
<path fill-rule="evenodd" clip-rule="evenodd" d="M94.14 46.6109H77.1591C77.2442 46.469 77.3293 46.3271 77.4144 46.1853H93.8847C93.984 46.3271 94.0691 46.469 94.14 46.6109Z" fill="#F0F0F3"/>
<path fill-rule="evenodd" clip-rule="evenodd" d="M94.6651 47.6463H76.6486C76.7053 47.5044 76.7762 47.3626 76.833 47.2207H94.4665C94.5375 47.3767 94.6084 47.5044 94.6651 47.6463Z" fill="#F0F0F3"/>
<path fill-rule="evenodd" clip-rule="evenodd" d="M95.0337 48.6961H76.2794C76.322 48.5543 76.3645 48.4124 76.4071 48.2705H94.906C94.9486 48.4124 94.9911 48.5543 95.0337 48.6961Z" fill="#F0F0F3"/>
<path fill-rule="evenodd" clip-rule="evenodd" d="M95.2752 49.746H76.0244C76.0528 49.6041 76.0812 49.4623 76.1095 49.3204H95.1901C95.2184 49.4623 95.2468 49.6041 95.2752 49.746Z" fill="#F0F0F3"/>
<path fill-rule="evenodd" clip-rule="evenodd" d="M95.4029 50.7814H75.8967C75.9109 50.6396 75.9109 50.4977 75.9393 50.3558H95.3603C95.3887 50.5119 95.3887 50.6396 95.4029 50.7814Z" fill="#F0F0F3"/>
<path fill-rule="evenodd" clip-rule="evenodd" d="M95.4311 51.4057V51.4482C95.4311 51.5759 95.4311 51.7036 95.4169 51.8313H75.8824C75.8824 51.7036 75.8682 51.5759 75.8682 51.4482V51.4057H95.4311Z" fill="#F0F0F3"/>
<path fill-rule="evenodd" clip-rule="evenodd" d="M95.3742 52.4555C95.36 52.5974 95.3458 52.7393 95.3175 52.8811H75.9816C75.9674 52.7393 75.939 52.5974 75.9248 52.4555H95.3742Z" fill="#F0F0F3"/>
<path fill-rule="evenodd" clip-rule="evenodd" d="M95.204 53.5054C95.1756 53.6473 95.1473 53.7891 95.1047 53.931H76.1944C76.1518 53.7891 76.1235 53.6473 76.0951 53.5054H95.204Z" fill="#F0F0F3"/>
<path fill-rule="evenodd" clip-rule="evenodd" d="M94.9205 54.5408C94.8779 54.6827 94.8212 54.8245 94.7644 54.9664H76.5351C76.4783 54.8245 76.4358 54.6827 76.379 54.5408H94.9205Z" fill="#F0F0F3"/>
<path fill-rule="evenodd" clip-rule="evenodd" d="M94.5089 55.5907C94.438 55.7325 94.3671 55.8744 94.2962 56.0163H77.0031C76.9321 55.8744 76.8612 55.7325 76.7903 55.5907H94.5089Z" fill="#F0F0F3"/>
<path fill-rule="evenodd" clip-rule="evenodd" d="M93.9414 56.6405C93.8563 56.7824 93.757 56.9243 93.6577 57.0661H77.6556C77.5562 56.9243 77.4569 56.7824 77.3718 56.6405H93.9414Z" fill="#F0F0F3"/>
<path fill-rule="evenodd" clip-rule="evenodd" d="M93.1754 57.676C93.0478 57.8178 92.9343 57.9597 92.8066 58.1015H78.4926C78.3649 57.9597 78.2373 57.8178 78.1238 57.676H93.1754Z" fill="#F0F0F3"/>
<path fill-rule="evenodd" clip-rule="evenodd" d="M92.1682 58.7258C92.0121 58.8677 91.8419 59.0096 91.6717 59.1514H79.6275C79.4573 59.0096 79.287 58.8819 79.131 58.7258H92.1682Z" fill="#F0F0F3"/>
<path fill-rule="evenodd" clip-rule="evenodd" d="M90.778 59.7757C90.6078 59.875 90.4375 59.9885 90.2531 60.0736C90.1822 60.1162 90.0971 60.1587 90.0261 60.1871H81.2874L81.0604 60.0736C80.876 59.9743 80.7058 59.875 80.5355 59.7757H90.778Z" fill="#F0F0F3"/>
<path fill-rule="evenodd" clip-rule="evenodd" d="M86.6783 61.1658C87.2883 61.109 87.8699 60.9814 88.4374 60.8111H86.6783H84.6213H82.8622C83.4296 60.9814 84.0255 61.0948 84.6213 61.1658H86.6783Z" fill="#F0F0F3"/>
<path fill-rule="evenodd" clip-rule="evenodd" d="M87.1606 41.7309V61.1661H84.1531V41.7309C84.6496 41.7025 85.1461 41.6741 85.6568 41.6741C86.1675 41.6741 86.664 41.6883 87.1606 41.7309Z" fill="#F0F0F3"/>
<path fill-rule="evenodd" clip-rule="evenodd" d="M79.968 43.5038V44.0996V44.5252V45.1494V45.575V46.1991V46.6247V47.2489V47.6745V48.2987V48.7243V49.3485V49.7741V50.3983V50.8239V51.4481V51.8737V52.4979V52.9235V53.5476V53.9732V54.5974V55.023V55.6472V56.0728V56.697V57.1226V57.7468V58.1724V58.7966V59.2222V59.4775L80.5213 59.8464C80.6915 59.9457 80.8618 60.0591 81.0462 60.1443V59.7754V59.1512V58.7256V58.1014V57.6759V57.0517V56.6261V56.0019V55.5763V54.9521V54.5265V53.9023V53.4767V52.8525V52.4269V51.8311V51.4055V50.7813V50.3557V49.7315V49.3059V48.6817V48.2562V47.632V47.2064V46.5822V46.1566V45.5324V45.1068V44.4826V44.057V43.4328V43.0072V42.7803C80.9043 42.8512 80.7766 42.9221 80.649 43.0072C80.422 43.1349 80.2092 43.2768 80.0106 43.4328L79.968 43.5038Z" fill="#ABABB5"/>
<path fill-rule="evenodd" clip-rule="evenodd" d="M91.3029 43.4754C91.0901 43.3336 90.8773 43.1917 90.6646 43.0499C90.5369 42.9647 90.395 42.8938 90.2673 42.8229V43.0499V43.4754V44.0996V44.5252V45.1494V45.575V46.1992V46.6248V47.249V47.6746V48.2988V48.7244V49.3486V49.7742V50.3984V50.8239V51.4481V51.8737V52.4979V52.9235V53.5477V53.9733V54.5975V55.0231V55.6473V56.0729V56.6971V57.1226V57.7468V58.1724V58.7966V59.2222V59.8464V60.1443C90.4518 60.045 90.622 59.9457 90.7922 59.8464C90.9766 59.7329 91.1611 59.6052 91.3455 59.4776V59.2222V58.7966V58.1724V57.7468V57.1226V56.6971V56.0729V55.6473V55.0231V54.5975V53.9733V53.5477V52.9235V52.4979V51.8312V51.4056V50.7814V50.3558V49.7316V49.306V48.6818V48.2562V47.632V47.2064V46.5822V46.1567V45.5325V45.1069V44.4827V44.0571V43.4613L91.3029 43.4754Z" fill="#ABABB5"/>
<path fill-rule="evenodd" clip-rule="evenodd" d="M12.4272 59.8183C12.4272 59.1941 12.938 58.6834 13.5621 58.6834H20.4425C21.0667 58.6834 21.5774 59.1941 21.5774 59.8183C21.5774 60.4425 21.0667 60.9532 20.4425 60.9532H13.5621C12.938 60.939 12.4272 60.4425 12.4272 59.8183Z" fill="#ABABB5"/>
<path fill-rule="evenodd" clip-rule="evenodd" d="M76.9322 25.0474C78.0387 23.955 79.5141 23.3309 81.0888 23.3309C81.7414 23.3309 82.3655 23.4302 82.9756 23.6429C82.3939 23.9834 81.8548 24.409 81.3583 24.8913C80.2234 26.0262 79.4715 27.4591 79.1594 28.9912C78.1097 27.8988 77.3294 26.5511 76.9322 25.0474ZM94.3813 20.4085C93.2748 21.5008 91.7994 22.125 90.2247 22.125C89.5722 22.125 88.948 22.0257 88.338 21.8129C88.9196 21.4724 89.4587 21.0469 89.9552 20.5645C91.0901 19.4296 91.842 17.9968 92.1541 16.4647C93.2039 17.557 93.9841 18.9047 94.3813 20.4085ZM88.4515 19.0608C87.9975 19.5147 87.4726 19.8978 86.9052 20.1815C87.0754 19.5289 87.1605 18.848 87.1605 18.1529C87.1605 16.5498 86.6782 15.0035 85.8128 13.6984C87.4017 13.7267 88.8912 14.1665 90.1822 14.9184C90.1822 16.4647 89.558 17.9542 88.4515 19.0608ZM83.3302 13.9963C84.4226 15.1028 85.0468 16.5782 85.0468 18.1529C85.0468 18.8054 84.9474 19.4296 84.7347 20.0396C84.3942 19.458 83.9686 18.9189 83.4863 18.4224C82.3514 17.2875 80.9186 16.5356 79.3864 16.2235C80.4788 15.1737 81.8265 14.3935 83.3302 13.9963ZM77.8543 18.1954C79.4006 18.2096 80.8902 18.8196 81.9967 19.9261C82.4507 20.3801 82.8337 20.905 83.1174 21.4724C82.4649 21.3022 81.7839 21.2171 81.0888 21.2171C79.4857 21.2171 77.9394 21.6994 76.6343 22.5648C76.6627 20.9617 77.1024 19.4864 77.8543 18.1954ZM82.8479 26.3809C83.3018 25.9269 83.8267 25.5439 84.3942 25.2602C84.224 25.9128 84.1388 26.5937 84.1388 27.2888C84.1388 28.8919 84.6212 30.4382 85.4865 31.7433C83.8977 31.7149 82.4081 31.2752 81.1172 30.5233C81.1313 28.977 81.7413 27.4874 82.8479 26.3809ZM87.9691 31.4454C86.8768 30.3389 86.2526 28.8635 86.2526 27.2888C86.2526 26.6363 86.3519 26.0121 86.5647 25.402C86.9052 25.9837 87.3307 26.5228 87.8131 27.0193C88.948 28.1542 90.3666 28.9061 91.9129 29.2182C90.8206 30.2679 89.4729 31.0482 87.9691 31.4454ZM93.4592 27.2604C91.9129 27.2463 90.4234 26.6363 89.3168 25.5297C88.8629 25.0758 88.4798 24.5509 88.1961 23.9834C88.8487 24.1537 89.5296 24.2388 90.2247 24.2388C91.8278 24.2388 93.3741 23.7564 94.6792 22.8911C94.6509 24.4799 94.2111 25.9695 93.4592 27.2604ZM85.6568 11.5704C79.4999 11.5704 74.5063 16.5782 74.5063 22.7208C74.5063 28.8635 79.5141 33.8713 85.6568 33.8713C91.8136 33.8713 96.8072 28.8635 96.8072 22.7208C96.8072 16.5782 91.7994 11.5704 85.6568 11.5704Z" fill="#3E3F46"/>
<path fill-rule="evenodd" clip-rule="evenodd" d="M85.657 19.6994C87.331 19.6994 88.6787 21.0471 88.6787 22.7211C88.6787 24.3951 87.331 25.7428 85.657 25.7428C83.9831 25.7428 82.6354 24.3951 82.6354 22.7211C82.6354 21.0471 83.9831 19.6994 85.657 19.6994Z" fill="#F0F0F3"/>
<path fill-rule="evenodd" clip-rule="evenodd" d="M86.9195 19.983C87.1039 20.366 87.2032 20.7916 87.2032 21.2456C87.2032 22.9196 85.8413 24.2673 84.1815 24.2673C83.7276 24.2673 83.302 24.1679 82.9189 23.9835C83.4013 25.0191 84.4511 25.7426 85.6711 25.7426C87.3451 25.7426 88.6928 24.3807 88.6928 22.7209C88.6786 21.5009 87.9551 20.4511 86.9195 19.983Z" fill="#ABABB5"/>
<path fill-rule="evenodd" clip-rule="evenodd" d="M76.9322 53.4202C78.0387 52.3279 79.5141 51.7037 81.0888 51.7037C81.7414 51.7037 82.3655 51.803 82.9756 52.0158C82.3939 52.3563 81.8548 52.7819 81.3583 53.2642C80.2234 54.3991 79.4715 55.8319 79.1594 57.364C78.1097 56.2717 77.3294 54.924 76.9322 53.4202ZM94.3813 48.7813C93.2748 49.8737 91.7994 50.4979 90.2247 50.4979C89.5722 50.4979 88.948 50.3986 88.338 50.1858C88.9196 49.8453 89.4587 49.4197 89.9552 48.9374C91.0901 47.8025 91.842 46.3697 92.1541 44.8375C93.2039 45.9299 93.9841 47.2776 94.3813 48.7813ZM88.4515 47.4336C87.9975 47.8876 87.4726 48.2706 86.9052 48.5544C87.0754 47.9018 87.1605 47.2208 87.1605 46.5257C87.1605 44.9227 86.6782 43.3764 85.8128 42.0712C87.4017 42.0996 88.8912 42.5394 90.1822 43.2912C90.1822 44.8375 89.558 46.3271 88.4515 47.4336ZM83.3302 42.3691C84.4226 43.4757 85.0468 44.951 85.0468 46.5257C85.0468 47.1783 84.9474 47.8025 84.7347 48.4125C84.3942 47.8309 83.9686 47.2918 83.4863 46.7952C82.3514 45.6603 80.9186 44.9085 79.3864 44.5964C80.4788 43.5466 81.8265 42.7663 83.3302 42.3691ZM77.8543 46.5683C79.4006 46.5825 80.8902 47.1925 81.9967 48.299C82.4507 48.753 82.8337 49.2778 83.1174 49.8453C82.4649 49.6751 81.7839 49.5899 81.0888 49.5899C79.4857 49.5899 77.9394 50.0723 76.6343 50.9376C76.6627 49.3346 77.1024 47.8592 77.8543 46.5683ZM82.8479 54.7538C83.3018 54.2998 83.8267 53.9168 84.3942 53.633C84.224 54.2856 84.1388 54.9665 84.1388 55.6617C84.1388 57.2647 84.6212 58.811 85.4865 60.1162C83.8977 60.0878 82.4081 59.648 81.1172 58.8961C81.1313 57.3498 81.7413 55.8603 82.8479 54.7538ZM87.9691 59.8183C86.8768 58.7117 86.2526 57.2364 86.2526 55.6617C86.2526 55.0091 86.3519 54.3849 86.5647 53.7749C86.9052 54.3565 87.3307 54.8956 87.8131 55.3921C88.948 56.527 90.3666 57.2789 91.9129 57.591C90.8206 58.6408 89.4729 59.421 87.9691 59.8183ZM93.4592 55.6333C91.9129 55.6191 90.4234 55.0091 89.3168 53.9026C88.8629 53.4486 88.4798 52.9237 88.1961 52.3563C88.8487 52.5265 89.5296 52.6116 90.2247 52.6116C91.8278 52.6116 93.3741 52.1293 94.6792 51.2639C94.6509 52.8528 94.2111 54.3424 93.4592 55.6333ZM85.6568 39.9433C79.4999 39.9433 74.5063 44.951 74.5063 51.0937C74.5063 57.2364 79.5141 62.2441 85.6568 62.2441C91.8136 62.2441 96.8072 57.2364 96.8072 51.0937C96.8072 44.951 91.7994 39.9433 85.6568 39.9433Z" fill="#3E3F46"/>
<path fill-rule="evenodd" clip-rule="evenodd" d="M85.657 48.0716C87.331 48.0716 88.6787 49.4192 88.6787 51.0932C88.6787 52.7672 87.331 54.1149 85.657 54.1149C83.9831 54.1149 82.6354 52.7672 82.6354 51.0932C82.6354 49.4192 83.9831 48.0716 85.657 48.0716Z" fill="#F0F0F3"/>
<path fill-rule="evenodd" clip-rule="evenodd" d="M86.9195 48.3558C87.1039 48.7389 87.2032 49.1645 87.2032 49.6184C87.2032 51.2924 85.8413 52.6401 84.1815 52.6401C83.7276 52.6401 83.302 52.5408 82.9189 52.3564C83.4013 53.392 84.4511 54.1155 85.6711 54.1155C87.3451 54.1155 88.6928 52.7536 88.6928 51.0938C88.6786 49.8738 87.9551 48.824 86.9195 48.3558Z" fill="#ABABB5"/>
<path fill-rule="evenodd" clip-rule="evenodd" d="M51.9787 25.1895C53.0852 24.0972 54.5606 23.473 56.1353 23.473C56.7879 23.473 57.4121 23.5723 58.0221 23.7851C57.4404 24.1256 56.9014 24.5511 56.4048 25.0335C55.2699 26.1684 54.5181 27.6012 54.206 29.1333C53.1562 28.041 52.3759 26.6933 51.9787 25.1895ZM69.4278 20.5506C68.3213 21.643 66.8459 22.2672 65.2713 22.2672C64.6187 22.2672 63.9945 22.1679 63.3845 21.9551C63.9661 21.6146 64.5052 21.189 65.0017 20.7067C66.1366 19.5718 66.8885 18.139 67.2006 16.6068C68.2504 17.6992 69.0306 19.0469 69.4278 20.5506ZM63.498 19.2029C63.044 19.6569 62.5191 20.0399 61.9517 20.3236C62.1219 19.6711 62.207 18.9901 62.207 18.295C62.207 16.692 61.7247 15.1456 60.8593 13.8405C62.4482 13.8689 63.9377 14.3087 65.2287 15.0605C65.2287 16.6068 64.6045 18.0964 63.498 19.2029ZM58.3767 14.1384C59.4691 15.2449 60.0933 16.7203 60.0933 18.295C60.0933 18.9476 59.994 19.5718 59.7812 20.1818C59.4407 19.6001 59.0151 19.0611 58.5328 18.5645C57.3979 17.4296 55.9651 16.6778 54.4329 16.3657C55.5253 15.3159 56.873 14.5356 58.3767 14.1384ZM52.9008 18.3376C54.4471 18.3517 55.9367 18.9618 57.0432 20.0683C57.4972 20.5222 57.8802 21.0471 58.1639 21.6146C57.5114 21.4444 56.8304 21.3592 56.1353 21.3592C54.5322 21.3592 52.9859 21.8416 51.6808 22.7069C51.7092 21.1039 52.1489 19.6285 52.9008 18.3376ZM57.8944 26.523C58.3484 26.0691 58.8732 25.6861 59.4407 25.4023C59.2705 26.0549 59.1853 26.7358 59.1853 27.431C59.1853 29.034 59.6677 30.5803 60.533 31.8855C58.9442 31.8571 57.4546 31.4173 56.1637 30.6654C56.1779 29.1191 56.7879 27.6296 57.8944 26.523ZM63.0156 31.5875C61.9233 30.481 61.2991 29.0056 61.2991 27.431C61.2991 26.7784 61.3984 26.1542 61.6112 25.5442C61.9517 26.1258 62.3773 26.6649 62.8596 27.1614C63.9945 28.2963 65.4131 29.0482 66.9594 29.3603C65.8671 30.4101 64.5194 31.1903 63.0156 31.5875ZM68.5057 27.4026C66.9594 27.3884 65.4699 26.7784 64.3633 25.6719C63.9094 25.2179 63.5263 24.693 63.2426 24.1256C63.8952 24.2958 64.5761 24.3809 65.2713 24.3809C66.8743 24.3809 68.4206 23.8986 69.7258 23.0332C69.6974 24.6221 69.2576 26.1116 68.5057 27.4026ZM60.7033 11.7126C54.5464 11.7126 49.5529 16.7203 49.5529 22.863C49.5529 29.0056 54.5606 34.0134 60.7033 34.0134C66.8601 34.0134 71.8537 29.0056 71.8537 22.863C71.8537 16.7203 66.8459 11.7126 60.7033 11.7126Z" fill="#3E3F46"/>
<path fill-rule="evenodd" clip-rule="evenodd" d="M60.7032 19.8408C62.3772 19.8408 63.7249 21.1885 63.7249 22.8625C63.7249 24.5365 62.3772 25.8842 60.7032 25.8842C59.0292 25.8842 57.6815 24.5365 57.6815 22.8625C57.6815 21.1885 59.0292 19.8408 60.7032 19.8408Z" fill="#F0F0F3"/>
<path fill-rule="evenodd" clip-rule="evenodd" d="M61.9656 20.1251C62.15 20.5082 62.2493 20.9338 62.2493 21.3877C62.2493 23.0617 60.8875 24.4094 59.2277 24.4094C58.7737 24.4094 58.3481 24.3101 57.9651 24.1257C58.4474 25.1613 59.4972 25.8848 60.7172 25.8848C62.3912 25.8848 63.7389 24.5229 63.7389 22.8631C63.7247 21.6431 63.0012 20.5933 61.9656 20.1251Z" fill="#ABABB5"/>
<path fill-rule="evenodd" clip-rule="evenodd" d="M51.9787 53.5617C53.0852 52.4693 54.5606 51.8451 56.1353 51.8451C56.7879 51.8451 57.4121 51.9444 58.0221 52.1572C57.4404 52.4977 56.9014 52.9233 56.4048 53.4056C55.2699 54.5405 54.5181 55.9733 54.206 57.5054C53.1562 56.4131 52.3759 55.0654 51.9787 53.5617ZM69.4278 48.9227C68.3213 50.0151 66.8459 50.6393 65.2713 50.6393C64.6187 50.6393 63.9945 50.54 63.3845 50.3272C63.9661 49.9867 64.5052 49.5611 65.0017 49.0788C66.1366 47.9439 66.8885 46.5111 67.2006 44.979C68.2504 46.0713 69.0306 47.419 69.4278 48.9227ZM63.498 47.5751C63.044 48.029 62.5191 48.412 61.9517 48.6958C62.1219 48.0432 62.207 47.3623 62.207 46.6671C62.207 45.0641 61.7247 43.5178 60.8593 42.2126C62.4482 42.241 63.9377 42.6808 65.2287 43.4327C65.2287 44.979 64.6045 46.4685 63.498 47.5751ZM58.3767 42.5106C59.4691 43.6171 60.0933 45.0925 60.0933 46.6671C60.0933 47.3197 59.994 47.9439 59.7812 48.5539C59.4407 47.9723 59.0151 47.4332 58.5328 46.9367C57.3979 45.8018 55.9651 45.0499 54.4329 44.7378C55.5253 43.688 56.873 42.9078 58.3767 42.5106ZM52.9008 46.7097C54.4471 46.7239 55.9367 47.3339 57.0432 48.4404C57.4972 48.8944 57.8802 49.4193 58.1639 49.9867C57.5114 49.8165 56.8304 49.7314 56.1353 49.7314C54.5322 49.7314 52.9859 50.2137 51.6808 51.0791C51.7092 49.476 52.1489 48.0006 52.9008 46.7097ZM57.8944 54.8952C58.3484 54.4412 58.8732 54.0582 59.4407 53.7745C59.2705 54.427 59.1853 55.108 59.1853 55.8031C59.1853 57.4061 59.6677 58.9524 60.533 60.2576C58.9442 60.2292 57.4546 59.7894 56.1637 59.0376C56.1779 57.4913 56.7879 56.0017 57.8944 54.8952ZM63.0156 59.9597C61.9233 58.8531 61.2991 57.3778 61.2991 55.8031C61.2991 55.1505 61.3984 54.5263 61.6112 53.9163C61.9517 54.498 62.3773 55.037 62.8596 55.5336C63.9945 56.6685 65.4131 57.4203 66.9594 57.7324C65.8671 58.7822 64.5194 59.5625 63.0156 59.9597ZM68.5057 55.7747C66.9594 55.7605 65.4699 55.1505 64.3633 54.044C63.9094 53.59 63.5263 53.0651 63.2426 52.4977C63.8952 52.6679 64.5761 52.753 65.2713 52.753C66.8743 52.753 68.4206 52.2707 69.7258 51.4053C69.6974 52.9942 69.2576 54.4838 68.5057 55.7747ZM60.7033 40.0847C54.5464 40.0847 49.5529 45.0925 49.5529 51.2351C49.5529 57.3778 54.5606 62.3855 60.7033 62.3855C66.8601 62.3855 71.8537 57.3778 71.8537 51.2351C71.8537 45.0925 66.8459 40.0847 60.7033 40.0847Z" fill="#3E3F46"/>
<path fill-rule="evenodd" clip-rule="evenodd" d="M60.7032 48.2137C62.3772 48.2137 63.7249 49.5614 63.7249 51.2354C63.7249 52.9094 62.3772 54.257 60.7032 54.257C59.0292 54.257 57.6815 52.9094 57.6815 51.2354C57.6815 49.5614 59.0292 48.2137 60.7032 48.2137Z" fill="#F0F0F3"/>
<path fill-rule="evenodd" clip-rule="evenodd" d="M61.9656 48.4973C62.15 48.8803 62.2493 49.3059 62.2493 49.7599C62.2493 51.4338 60.8875 52.7815 59.2277 52.7815C58.7737 52.7815 58.3481 52.6822 57.9651 52.4978C58.4474 53.5334 59.4972 54.2569 60.7172 54.2569C62.3912 54.2569 63.7389 52.895 63.7389 51.2352C63.7247 50.0152 63.0012 48.9654 61.9656 48.4973Z" fill="#ABABB5"/>
<path fill-rule="evenodd" clip-rule="evenodd" d="M27.025 25.3598C28.1315 24.2675 29.6069 23.6433 31.1816 23.6433C31.8341 23.6433 32.4583 23.7426 33.0683 23.9554C32.4867 24.2958 31.9476 24.7214 31.4511 25.2038C30.3162 26.3387 29.5643 27.7715 29.2522 29.3036C28.2024 28.2113 27.4222 26.8636 27.025 25.3598ZM44.4741 20.7209C43.3676 21.8133 41.8922 22.4374 40.3175 22.4374C39.665 22.4374 39.0408 22.3381 38.4307 22.1253C39.0124 21.7849 39.5515 21.3593 40.048 20.877C41.1829 19.7421 41.9348 18.3092 42.2469 16.7771C43.2966 17.8695 44.0769 19.2172 44.4741 20.7209ZM38.5442 19.3732C38.0903 19.8272 37.5654 20.2102 36.9979 20.4939C37.1682 19.8414 37.2533 19.1604 37.2533 18.4653C37.2533 16.8622 36.771 15.3159 35.9056 14.0108C37.4945 14.0392 38.984 14.4789 40.275 15.2308C40.275 16.7771 39.6508 18.2667 38.5442 19.3732ZM33.423 14.3087C34.5153 15.4152 35.1395 16.8906 35.1395 18.4653C35.1395 19.1179 35.0402 19.7421 34.8274 20.3521C34.487 19.7704 34.0614 19.2313 33.579 18.7348C32.4441 17.5999 31.0113 16.8481 29.4792 16.536C30.5715 15.4862 31.9192 14.7059 33.423 14.3087ZM27.9471 18.5078C29.4934 18.522 30.9829 19.132 32.0895 20.2386C32.5434 20.6925 32.9265 21.2174 33.2102 21.7849C32.5576 21.6146 31.8767 21.5295 31.1816 21.5295C29.5785 21.5295 28.0322 22.0119 26.7271 22.8772C26.7554 21.2742 27.1952 19.7988 27.9471 18.5078ZM32.9407 26.6933C33.3946 26.2394 33.9195 25.8563 34.487 25.5726C34.3167 26.2252 34.2316 26.9061 34.2316 27.6013C34.2316 29.2043 34.7139 30.7506 35.5793 32.0557C33.9904 32.0274 32.5009 31.5876 31.2099 30.8357C31.2241 29.2894 31.8341 27.7999 32.9407 26.6933ZM38.0619 31.7578C36.9696 30.6513 36.3454 29.1759 36.3454 27.6013C36.3454 26.9487 36.4447 26.3245 36.6575 25.7145C36.9979 26.2961 37.4235 26.8352 37.9059 27.3317C39.0408 28.4666 40.4594 29.2185 42.0057 29.5306C40.9133 30.5804 39.5656 31.3606 38.0619 31.7578ZM43.552 27.5729C42.0057 27.5587 40.5161 26.9487 39.4096 25.8422C38.9556 25.3882 38.5726 24.8633 38.2889 24.2958C38.9415 24.4661 39.6224 24.5512 40.3175 24.5512C41.9206 24.5512 43.4669 24.0689 44.772 23.2035C44.7436 24.7924 44.3039 26.2819 43.552 27.5729ZM35.7495 11.8829C29.5927 11.8829 24.5991 16.8906 24.5991 23.0333C24.5991 29.1759 29.6069 34.1837 35.7495 34.1837C41.9064 34.1837 46.9 29.1759 46.9 23.0333C46.9 16.8906 41.8922 11.8829 35.7495 11.8829Z" fill="#3E3F46"/>
<path fill-rule="evenodd" clip-rule="evenodd" d="M35.7495 20.0111C37.4234 20.0111 38.7711 21.3588 38.7711 23.0328C38.7711 24.7068 37.4234 26.0545 35.7495 26.0545C34.0755 26.0545 32.7278 24.7068 32.7278 23.0328C32.7278 21.3588 34.0755 20.0111 35.7495 20.0111Z" fill="#F0F0F3"/>
<path fill-rule="evenodd" clip-rule="evenodd" d="M37.0122 20.2954C37.1967 20.6785 37.296 21.104 37.296 21.558C37.296 23.232 35.9341 24.5797 34.2743 24.5797C33.8203 24.5797 33.3947 24.4804 33.0117 24.296C33.4941 25.3316 34.5438 26.055 35.7639 26.055C37.4378 26.055 38.7855 24.6932 38.7855 23.0334C38.7713 21.8134 38.0478 20.7636 37.0122 20.2954Z" fill="#ABABB5"/>
<path fill-rule="evenodd" clip-rule="evenodd" d="M27.025 53.7319C28.1315 52.6396 29.6069 52.0154 31.1816 52.0154C31.8341 52.0154 32.4583 52.1147 33.0683 52.3275C32.4867 52.668 31.9476 53.0936 31.4511 53.5759C30.3162 54.7108 29.5643 56.1436 29.2522 57.6757C28.2024 56.5834 27.4222 55.2357 27.025 53.7319ZM44.4741 49.093C43.3676 50.1854 41.8922 50.8096 40.3175 50.8096C39.665 50.8096 39.0408 50.7103 38.4307 50.4975C39.0124 50.157 39.5515 49.7314 40.048 49.2491C41.1829 48.1142 41.9348 46.6814 42.2469 45.1493C43.2966 46.2416 44.0769 47.5893 44.4741 49.093ZM38.5442 47.7453C38.0903 48.1993 37.5654 48.5823 36.9979 48.866C37.1682 48.2135 37.2533 47.5325 37.2533 46.8374C37.2533 45.2344 36.771 43.6881 35.9056 42.3829C37.4945 42.4113 38.984 42.8511 40.275 43.6029C40.275 45.1492 39.6508 46.6388 38.5442 47.7453ZM33.423 42.6808C34.5153 43.7874 35.1395 45.2627 35.1395 46.8374C35.1395 47.49 35.0402 48.1142 34.8274 48.7242C34.487 48.1425 34.0614 47.6035 33.579 47.107C32.4441 45.9721 31.0113 45.2202 29.4792 44.9081C30.5715 43.8583 31.9192 43.0781 33.423 42.6808ZM27.9471 46.88C29.4934 46.8942 30.9829 47.5042 32.0895 48.6107C32.5434 49.0647 32.9265 49.5896 33.2102 50.157C32.5576 49.9868 31.8767 49.9017 31.1816 49.9017C29.5785 49.9017 28.0322 50.384 26.7271 51.2494C26.7554 49.6463 27.1952 48.1709 27.9471 46.88ZM32.9407 55.0655C33.3946 54.6115 33.9195 54.2285 34.487 53.9447C34.3167 54.5973 34.2316 55.2783 34.2316 55.9734C34.2316 57.5764 34.7139 59.1227 35.5793 60.4279C33.9904 60.3995 32.5009 59.9597 31.2099 59.2078C31.2241 57.6615 31.8341 56.172 32.9407 55.0655ZM38.0619 60.13C36.9696 59.0234 36.3454 57.5481 36.3454 55.9734C36.3454 55.3208 36.4447 54.6966 36.6575 54.0866C36.9979 54.6682 37.4235 55.2073 37.9059 55.7038C39.0408 56.8387 40.4594 57.5906 42.0057 57.9027C40.9133 58.9525 39.5656 59.7327 38.0619 60.13ZM43.552 55.945C42.0057 55.9308 40.5161 55.3208 39.4096 54.2143C38.9556 53.7603 38.5726 53.2354 38.2889 52.668C38.9415 52.8382 39.6224 52.9233 40.3175 52.9233C41.9206 52.9233 43.4669 52.441 44.772 51.5756C44.7436 53.1645 44.3039 54.6541 43.552 55.945ZM35.7495 40.255C29.5927 40.255 24.5991 45.2627 24.5991 51.4054C24.5991 57.5481 29.6069 62.5558 35.7495 62.5558C41.9064 62.5558 46.9 57.5481 46.9 51.4054C46.9 45.2627 41.8922 40.255 35.7495 40.255Z" fill="#3E3F46"/>
<path fill-rule="evenodd" clip-rule="evenodd" d="M35.7495 48.384C37.4234 48.384 38.7711 49.7317 38.7711 51.4057C38.7711 53.0796 37.4234 54.4273 35.7495 54.4273C34.0755 54.4273 32.7278 53.0796 32.7278 51.4057C32.7278 49.7317 34.0755 48.384 35.7495 48.384Z" fill="#F0F0F3"/>
<path fill-rule="evenodd" clip-rule="evenodd" d="M37.0122 48.6676C37.1967 49.0506 37.296 49.4762 37.296 49.9301C37.296 51.6041 35.9341 52.9518 34.2743 52.9518C33.8203 52.9518 33.3947 52.8525 33.0117 52.6681C33.4941 53.7037 34.5438 54.4272 35.7639 54.4272C37.4378 54.4272 38.7855 53.0653 38.7855 51.4055C38.7713 50.1855 38.0478 49.1357 37.0122 48.6676Z" fill="#ABABB5"/>
<path fill-rule="evenodd" clip-rule="evenodd" d="M5.26305 34.822H2.6244C1.87253 34.822 1.29089 34.2829 1.29089 33.6304V20.1392C1.29089 19.4725 1.88672 18.9476 2.6244 18.9476H5.26305V34.822Z" fill="#6E6E78"/>
<path fill-rule="evenodd" clip-rule="evenodd" d="M3.06419 27.4733V18.2664H1.80161C1.13485 18.2664 0.624146 18.8055 0.624146 19.4723V29.9843C1.97184 29.9843 3.06419 28.8636 3.06419 27.4733Z" fill="#ABABB5"/>
<path fill-rule="evenodd" clip-rule="evenodd" d="M5.26305 60.7972H2.6244C1.87253 60.7972 1.29089 60.2581 1.29089 59.6055V46.1144C1.29089 45.4476 1.88672 44.9227 2.6244 44.9227H5.26305V60.7972Z" fill="#6E6E78"/>
<path fill-rule="evenodd" clip-rule="evenodd" d="M3.06419 53.4485V44.2416H1.80161C1.13485 44.2416 0.624146 44.7806 0.624146 45.4474V55.9594C1.97184 55.9594 3.06419 54.8387 3.06419 53.4485Z" fill="#ABABB5"/>
<path fill-rule="evenodd" clip-rule="evenodd" d="M7.09314 1.45583C7.09314 1.42746 7.09314 1.41327 7.09314 1.3849C7.09314 1.34234 7.09314 1.29978 7.07895 1.24304C7.02221 0.689774 6.55406 0.25 5.97242 0.25H5.94405H5.92987H1.1349C0.510706 0.25 0 0.760705 0 1.3849C0 2.0091 0.510706 2.5198 1.1349 2.5198H4.82334L4.85171 79.7498C4.85171 80.3598 5.34823 80.8563 5.95824 80.8563H6.0008C6.62499 80.8563 7.12151 80.3598 7.10733 79.7498L7.09314 1.45583Z" fill="#ABABB5"/>
<path d="M24.514 75.7776V71.4224H77.2586V73.2524H74.8186L75.2867 74.4299H71.7827V74.2029C71.7969 73.7773 71.4423 73.4227 71.0167 73.4227C70.5911 73.4227 70.2648 73.7631 70.2648 74.1887V75.7776H36.3738V74.1887C36.3738 73.8766 36.1184 73.6213 35.8063 73.6213C35.4942 73.6213 35.2389 73.8766 35.2389 74.1887V75.7776H30.1602V73.2524H28.2734V75.7776H24.514Z" fill="#3F3E45"/>
<path d="M71.7828 74.43V76.4871H76.5778C77.2162 76.4871 77.7411 75.9622 77.7411 75.3238V74.274L71.7828 74.43Z" fill="#FBA615"/>
<path d="M70.2506 75.7777H36.3738V77.8205H70.2506V75.7777Z" fill="#F2994A"/>
<path d="M35.2389 75.7777H30.1602V77.6787H35.2389V75.7777Z" fill="#F2994A"/>
<path d="M7.12134 9.47143V79.7503H12.7533V74.9979H10.5544C9.66068 74.9979 8.923 74.2744 8.923 73.3664V9.47143H7.12134Z" fill="#3F3E45"/>
<path d="M9.94472 78.7287C10.7204 78.7287 11.3492 78.0999 11.3492 77.3243C11.3492 76.5486 10.7204 75.9198 9.94472 75.9198C9.16907 75.9198 8.54028 76.5486 8.54028 77.3243C8.54028 78.0999 9.16907 78.7287 9.94472 78.7287Z" fill="#A5A5AD"/>
<path d="M10.0581 76.3029L10.129 77.1257L10.9234 77.1966V77.4236L10.129 77.4946L10.0581 78.3315H9.8169L9.74597 77.4946L8.95154 77.4236V77.1966L9.74597 77.1257L9.8169 76.3029H10.0581Z" fill="#3B3C43"/>
</svg>
