<svg width="90" height="90" viewBox="0 0 90 90" fill="none" xmlns="http://www.w3.org/2000/svg">
<path fill-rule="evenodd" clip-rule="evenodd" d="M82.8701 16.2596V54.8223C82.8701 60.1392 78.5717 64.4375 73.2548 64.4375H12.9357V71.5674H79.1829C85.1516 71.5674 90 66.7191 90 60.7503V26.4248C90 21.7394 87.0258 17.767 82.8701 16.2596Z" fill="#B7B4C7"/>
<path fill-rule="evenodd" clip-rule="evenodd" d="M83.3793 55.23V16.2599C82.2385 15.8525 80.9755 15.608 79.6718 15.608H12.9357V64.9267H73.703C79.0403 64.9471 83.3793 60.5877 83.3793 55.23Z" fill="white"/>
<path fill-rule="evenodd" clip-rule="evenodd" d="M22.9177 30.275C22.9177 29.3787 23.6511 28.6453 24.5474 28.6453H34.4275C35.3238 28.6453 36.0572 29.3787 36.0572 30.275C36.0572 31.1713 35.3238 31.9047 34.4275 31.9047H24.5474C23.6511 31.9047 22.9177 31.1713 22.9177 30.275Z" fill="#ABABB5"/>
<path fill-rule="evenodd" clip-rule="evenodd" d="M22.9177 36.7734C22.9177 35.8771 23.6511 35.1437 24.5474 35.1437H34.4275C35.3238 35.1437 36.0572 35.8771 36.0572 36.7734C36.0572 37.6698 35.3238 38.4031 34.4275 38.4031H24.5474C23.6511 38.4031 22.9177 37.6698 22.9177 36.7734Z" fill="#ABABB5"/>
<path fill-rule="evenodd" clip-rule="evenodd" d="M22.9177 43.2719C22.9177 42.3755 23.6511 41.6422 24.5474 41.6422H34.4275C35.3238 41.6422 36.0572 42.3755 36.0572 43.2719C36.0572 44.1682 35.3238 44.9016 34.4275 44.9016H24.5474C23.6511 44.9016 22.9177 44.1682 22.9177 43.2719Z" fill="#ABABB5"/>
<path fill-rule="evenodd" clip-rule="evenodd" d="M22.9177 49.7905C22.9177 48.8941 23.6511 48.1608 24.5474 48.1608H34.4275C35.3238 48.1608 36.0572 48.8941 36.0572 49.7905C36.0572 50.6868 35.3238 51.4202 34.4275 51.4202H24.5474C23.6511 51.4202 22.9177 50.6664 22.9177 49.7905Z" fill="#ABABB5"/>
<path fill-rule="evenodd" clip-rule="evenodd" d="M57.3858 25.5489C65.3917 25.5489 71.8697 32.0269 71.8697 40.0328C71.8697 48.0387 65.3917 54.5168 57.3858 54.5168C49.3799 54.5168 42.9019 48.0387 42.9019 40.0328C42.9019 32.0269 49.3799 25.5489 57.3858 25.5489Z" fill="#ABABB5"/>
<path fill-rule="evenodd" clip-rule="evenodd" d="M71.3603 39.8903V39.9514C71.3603 40.1348 71.3603 40.3181 71.3399 40.5014C71.3399 40.807 71.2991 41.0922 71.2788 41.3978C71.2584 41.6015 71.238 41.8052 71.1973 42.0089C71.1565 42.3145 71.0954 42.6201 71.0343 42.9053C70.9936 43.109 70.9528 43.3127 70.8917 43.5164C70.8102 43.822 70.7288 44.1275 70.6269 44.4127C70.5658 44.6164 70.4843 44.8201 70.4028 45.0239C70.2806 45.3294 70.1584 45.635 70.0158 45.9202C69.9139 46.1239 69.812 46.3276 69.7102 46.5313C69.5472 46.8369 69.3843 47.1425 69.2009 47.4277C69.0787 47.6314 68.9361 47.8351 68.7935 48.0388C68.5694 48.3444 68.3453 48.6499 68.1212 48.9351C67.9379 49.1388 67.7749 49.3426 67.5916 49.5463C67.3064 49.8518 67.0008 50.1574 66.6749 50.4426C66.4508 50.6463 66.2063 50.85 65.9619 51.0537C65.7989 51.176 65.6359 51.2982 65.473 51.4204C65.2081 51.6038 64.9433 51.7871 64.6785 51.9501C64.434 52.0927 64.1896 52.2556 63.9248 52.3779C63.8229 52.439 63.7007 52.5001 63.5988 52.5408C62.8858 52.9075 62.1321 53.2131 61.3376 53.4372C60.5228 53.6816 59.6672 53.8446 58.8116 53.9464C58.3227 53.9872 57.8338 54.0279 57.3449 54.0279C56.856 54.0279 56.3467 54.0076 55.8781 53.9464C55.0022 53.865 54.1669 53.6816 53.3521 53.4372C52.5576 53.2131 51.8039 52.9075 51.0909 52.5408L50.765 52.3779C50.5001 52.2353 50.2557 52.0927 50.0112 51.9501C49.7464 51.7871 49.4816 51.6038 49.2167 51.4204C49.0538 51.2982 48.8908 51.176 48.7278 51.0537C48.4834 50.85 48.2389 50.6667 48.0148 50.4426C47.6889 50.1574 47.3833 49.8518 47.0981 49.5463C46.9148 49.3426 46.7315 49.1388 46.5685 48.9351C46.324 48.6499 46.1 48.3444 45.8962 48.0388C45.7536 47.8351 45.611 47.6314 45.4888 47.4277C45.3055 47.1425 45.1425 46.8369 44.9795 46.5313C44.8777 46.3276 44.7758 46.1239 44.674 45.9202C44.5314 45.635 44.4091 45.3294 44.2869 45.0239C44.2054 44.8201 44.1443 44.6164 44.0628 44.4127C43.961 44.1071 43.8795 43.822 43.798 43.5164C43.7369 43.3127 43.6962 43.109 43.6554 42.9053C43.5943 42.6201 43.5332 42.3145 43.4924 42.0089C43.4721 41.8052 43.4313 41.6015 43.411 41.3978C43.3702 41.0922 43.3498 40.807 43.3498 40.5014C43.3498 40.3181 43.3295 40.1348 43.3295 39.9514V39.8903C43.3295 39.5847 43.3498 39.2995 43.3702 38.994C43.3906 38.7903 43.3906 38.5866 43.4313 38.3828C43.4721 38.0773 43.5128 37.7717 43.5536 37.4865C43.5943 37.2828 43.635 37.0791 43.6758 36.8754C43.7369 36.5698 43.8184 36.2642 43.8999 35.979C43.961 35.7753 44.0221 35.5716 44.0832 35.3679C44.1851 35.0623 44.3073 34.7568 44.4295 34.4716C44.511 34.2679 44.6129 34.0641 44.6943 33.8604C44.8369 33.5549 44.9999 33.2493 45.1629 32.9641C45.2851 32.7604 45.4073 32.5567 45.5296 32.353C45.7333 32.0474 45.937 31.7418 46.1611 31.4566C46.324 31.2529 46.487 31.0492 46.65 30.8455C46.9148 30.5399 47.1796 30.2343 47.4648 29.9492C47.6685 29.7454 47.8926 29.5417 48.1167 29.338C48.463 29.0324 48.8297 28.7473 49.1964 28.4824C49.2168 28.4621 49.2371 28.4621 49.2371 28.4417C49.5427 28.2176 49.8483 28.0343 50.1538 27.8305C50.3372 27.7083 50.5409 27.6065 50.7242 27.5046C51.1113 27.3009 51.5187 27.0972 51.9261 26.9342C52.4965 26.6898 53.0873 26.486 53.6984 26.3231C54.391 26.1397 55.1244 25.9971 55.8578 25.9157C56.3467 25.8749 56.8356 25.8342 57.3245 25.8342C57.8134 25.8342 58.3227 25.8545 58.7912 25.9157C59.5246 25.9971 60.2579 26.1194 60.9506 26.3231C61.5617 26.486 62.1525 26.6898 62.7229 26.9342C63.1303 27.0972 63.5377 27.3009 63.9248 27.5046C64.1285 27.6065 64.3118 27.7083 64.4952 27.8305C64.8211 28.0139 65.1267 28.2176 65.4119 28.4417C65.4322 28.4621 65.4526 28.4621 65.4526 28.4824C65.8193 28.7473 66.186 29.0324 66.5323 29.338C66.7564 29.5417 66.9804 29.7454 67.1842 29.9492C67.4694 30.2343 67.7545 30.5399 68.0194 30.8455C68.1823 31.0492 68.3453 31.2529 68.5083 31.4566C68.7324 31.7418 68.9361 32.0474 69.1398 32.353C69.262 32.5567 69.3843 32.7604 69.5065 32.9641C69.6694 33.2493 69.8324 33.5549 69.975 33.8604C70.0769 34.0641 70.1584 34.2679 70.2398 34.4716C70.3621 34.7568 70.4843 35.0623 70.5861 35.3679C70.6473 35.5716 70.7287 35.7753 70.7695 35.979C70.851 36.2642 70.9325 36.5698 70.9936 36.8754C71.0343 37.0791 71.0751 37.2828 71.1158 37.4865C71.1769 37.7921 71.2177 38.0773 71.238 38.3828C71.2584 38.5866 71.2788 38.7903 71.2991 38.994C71.3399 39.2995 71.3399 39.6051 71.3603 39.8903Z" fill="#ABABB5"/>
<path fill-rule="evenodd" clip-rule="evenodd" d="M62.7229 26.9951H51.9058C52.4762 26.7507 53.0669 26.547 53.6781 26.384H60.9506C61.5617 26.547 62.1525 26.7507 62.7229 26.9951Z" fill="#F0F0F3"/>
<path fill-rule="evenodd" clip-rule="evenodd" d="M65.4323 28.5026H49.2168C49.5224 28.2785 49.8279 28.0951 50.1335 27.8914H64.5156C64.8211 28.0748 65.1267 28.2785 65.4323 28.5026Z" fill="#F0F0F3"/>
<path fill-rule="evenodd" clip-rule="evenodd" d="M67.2046 29.9899H47.4241C47.6278 29.7862 47.8519 29.5824 48.076 29.3787H66.5731C66.7768 29.5824 67.0009 29.7862 67.2046 29.9899Z" fill="#F0F0F3"/>
<path fill-rule="evenodd" clip-rule="evenodd" d="M68.5287 31.4977H46.1204C46.2833 31.294 46.4463 31.0903 46.6093 30.8866H68.0398C68.2028 31.0903 68.3657 31.294 68.5287 31.4977Z" fill="#F0F0F3"/>
<path fill-rule="evenodd" clip-rule="evenodd" d="M69.5065 33.0051H45.1222C45.2444 32.8014 45.3666 32.5977 45.4889 32.394H69.1398C69.2621 32.5977 69.3843 32.8014 69.5065 33.0051Z" fill="#F0F0F3"/>
<path fill-rule="evenodd" clip-rule="evenodd" d="M70.2601 34.4919H44.3887C44.4702 34.2882 44.572 34.0845 44.6535 33.8808H69.9749C70.0768 34.1049 70.1583 34.2882 70.2601 34.4919Z" fill="#F0F0F3"/>
<path fill-rule="evenodd" clip-rule="evenodd" d="M70.7899 35.9994H43.8387C43.8999 35.7957 43.961 35.5919 44.0221 35.3882H70.5861C70.6676 35.5919 70.7287 35.7957 70.7899 35.9994Z" fill="#F0F0F3"/>
<path fill-rule="evenodd" clip-rule="evenodd" d="M71.1362 37.5068H43.4924C43.5332 37.3031 43.5739 37.0994 43.6147 36.8957H71.014C71.0547 37.0994 71.0954 37.3031 71.1362 37.5068Z" fill="#F0F0F3"/>
<path fill-rule="evenodd" clip-rule="evenodd" d="M71.3195 38.9941H43.3091C43.3295 38.7903 43.3295 38.5866 43.3702 38.3829H71.2584C71.2788 38.607 71.2991 38.7903 71.3195 38.9941Z" fill="#F0F0F3"/>
<path fill-rule="evenodd" clip-rule="evenodd" d="M71.3602 39.8904V39.9515C71.3602 40.1348 71.3602 40.3181 71.3399 40.5015H43.2887C43.2887 40.3181 43.2683 40.1348 43.2683 39.9515V39.8904H71.3602Z" fill="#F0F0F3"/>
<path fill-rule="evenodd" clip-rule="evenodd" d="M71.2786 41.3978C71.2583 41.6015 71.2379 41.8052 71.1972 42.0089H43.4312C43.4108 41.8052 43.3701 41.6015 43.3497 41.3978H71.2786Z" fill="#F0F0F3"/>
<path fill-rule="evenodd" clip-rule="evenodd" d="M71.0344 42.9052C70.9936 43.1089 70.9529 43.3126 70.8918 43.5164H43.737C43.6758 43.3126 43.6351 43.1089 43.5944 42.9052H71.0344Z" fill="#F0F0F3"/>
<path fill-rule="evenodd" clip-rule="evenodd" d="M70.6269 44.3925C70.5658 44.5962 70.4843 44.7999 70.4028 45.0036H44.2258C44.1443 44.7999 44.0832 44.5962 44.0017 44.3925H70.6269Z" fill="#F0F0F3"/>
<path fill-rule="evenodd" clip-rule="evenodd" d="M70.0362 45.8999C69.9343 46.1036 69.8325 46.3073 69.7306 46.5111H44.8981C44.7962 46.3073 44.6944 46.1036 44.5925 45.8999H70.0362Z" fill="#F0F0F3"/>
<path fill-rule="evenodd" clip-rule="evenodd" d="M69.2213 47.4073C69.0991 47.611 68.9565 47.8148 68.8139 48.0185H45.8148C45.6722 47.8148 45.5296 47.611 45.4073 47.4073H69.2213Z" fill="#F0F0F3"/>
<path fill-rule="evenodd" clip-rule="evenodd" d="M68.121 48.8941C67.9377 49.0978 67.7747 49.3016 67.5914 49.5053H47.0369C46.8535 49.3016 46.6702 49.0978 46.5072 48.8941H68.121Z" fill="#F0F0F3"/>
<path fill-rule="evenodd" clip-rule="evenodd" d="M66.6748 50.4016C66.4507 50.6053 66.2063 50.809 65.9618 51.0127H48.6667C48.4223 50.809 48.1778 50.6256 47.9537 50.4016H66.6748Z" fill="#F0F0F3"/>
<path fill-rule="evenodd" clip-rule="evenodd" d="M64.6785 51.909C64.434 52.0516 64.1896 52.2146 63.9247 52.3368C63.8229 52.3979 63.7007 52.459 63.5988 52.4998H51.0501L50.7242 52.3368C50.4594 52.1942 50.2149 52.0516 49.9705 51.909H64.6785Z" fill="#F0F0F3"/>
<path fill-rule="evenodd" clip-rule="evenodd" d="M58.7914 53.906C59.6673 53.8245 60.5026 53.6412 61.3174 53.3967H58.7914H55.8375H53.3115C54.1264 53.6412 54.982 53.8042 55.8375 53.906H58.7914Z" fill="#F0F0F3"/>
<path fill-rule="evenodd" clip-rule="evenodd" d="M59.4839 25.9972V53.9058H55.1652V25.9972C55.8782 25.9565 56.5911 25.9157 57.3245 25.9157C58.0579 25.9157 58.7709 25.9361 59.4839 25.9972Z" fill="#F0F0F3"/>
<path fill-rule="evenodd" clip-rule="evenodd" d="M49.1555 28.5434V29.399V30.0102V30.9065V31.5176V32.414V33.0251V33.9214V34.5326V35.4289V36.04V36.9364V37.5475V38.4438V39.055V39.9513V40.5624V41.4588V42.0699V42.9662V43.5774V44.4737V45.0848V45.9812V46.5923V47.4887V48.0998V48.9961V49.6073V50.5036V51.1147V51.4814L49.95 52.0111C50.1945 52.1537 50.4389 52.3166 50.7037 52.4389V52.0111V51.1147V50.5036V49.6073V48.9961V48.0998V47.4887V46.5923V45.9812V45.0848V44.4737V43.5774V42.9662V42.0699V41.4588V40.5624V39.9513V39.055V38.4438V37.5475V36.9364V35.9993V35.3882V34.4918V33.8807V32.9844V32.3732V31.4769V30.8657V29.9694V29.3583V28.4619V27.8508V27.5249C50.5 27.6267 50.3167 27.7286 50.1333 27.8508C49.8074 28.0341 49.5018 28.2379 49.2166 28.4619L49.1555 28.5434Z" fill="#ABABB5"/>
<path fill-rule="evenodd" clip-rule="evenodd" d="M65.4322 28.5028C65.1266 28.2787 64.821 28.0954 64.5155 27.8917C64.3321 27.7694 64.1284 27.6676 63.9451 27.5657V27.8917V28.5028V29.3991V30.0103V30.9066V31.5177V32.4141V33.0252V33.9215V34.5327V35.429V36.0402V36.9365V37.5476V38.444V39.0551V39.9514V40.5626V41.4589V42.07V42.9664V43.5775V44.4738V45.085V45.9813V46.5925V47.4888V48.0999V48.9963V49.6074V50.5037V51.1149V52.0112V52.439C64.2099 52.2964 64.4544 52.1538 64.6988 52.0112C64.9636 51.8482 65.2285 51.6649 65.4933 51.4815V51.1149V50.5037V49.6074V48.9963V48.0999V47.4888V46.5925V45.9813V45.085V44.4738V43.5775V42.9664V42.07V41.4589V40.5626V39.9514V39.0551V38.444V37.5476V36.9365V35.9994V35.3883V34.4919V33.8808V32.9845V32.3733V31.477V30.8659V29.9695V29.3584V28.5028H65.4322Z" fill="#ABABB5"/>
<path fill-rule="evenodd" clip-rule="evenodd" d="M44.8575 43.3734C46.4465 41.8048 48.5651 40.9085 50.8263 40.9085C51.7633 40.9085 52.6597 41.0511 53.5356 41.3567C52.7004 41.8456 51.9263 42.4567 51.2133 43.1493C49.5836 44.779 48.504 46.8365 48.0558 49.0366C46.5483 47.468 45.4279 45.5328 44.8575 43.3734ZM69.9141 36.712C68.3251 38.2806 66.2065 39.1769 63.9453 39.1769C63.0083 39.1769 62.1119 39.0343 61.236 38.7288C62.0712 38.2399 62.8453 37.6287 63.5583 36.9361C65.188 35.3064 66.2677 33.2489 66.7158 31.0488C68.2233 32.6174 69.3437 34.5527 69.9141 36.712ZM61.3989 34.7768C60.747 35.4286 59.9933 35.9787 59.1785 36.3861C59.4229 35.449 59.5452 34.4712 59.5452 33.473C59.5452 31.171 58.8525 28.9506 57.6099 27.0764C59.8915 27.1172 62.0304 27.7487 63.8842 28.8284C63.8842 31.0488 62.9879 33.1878 61.3989 34.7768ZM54.0449 27.5042C55.6135 29.0932 56.5098 31.2118 56.5098 33.473C56.5098 34.4101 56.3672 35.3064 56.0617 36.1824C55.5728 35.3472 54.9616 34.573 54.269 33.8601C52.6393 32.2304 50.5818 31.1507 48.3817 30.7025C49.9503 29.195 51.8856 28.0746 54.0449 27.5042ZM46.1816 33.5341C48.4021 33.5545 50.5411 34.4304 52.13 36.0194C52.7819 36.6713 53.3319 37.425 53.7394 38.2399C52.8023 37.9954 51.8245 37.8732 50.8263 37.8732C48.5243 37.8732 46.3039 38.5658 44.4297 39.8084C44.4704 37.5065 45.102 35.3879 46.1816 33.5341ZM53.3523 45.2883C54.0042 44.6364 54.7579 44.0864 55.5728 43.679C55.3283 44.6161 55.2061 45.5939 55.2061 46.5921C55.2061 48.894 55.8987 51.1145 57.1413 52.9886C54.8598 52.9479 52.7208 52.3164 50.867 51.2367C50.8874 49.0162 51.7633 46.8773 53.3523 45.2883ZM60.7063 52.5608C59.1377 50.9719 58.2414 48.8533 58.2414 46.5921C58.2414 45.655 58.384 44.7587 58.6896 43.8827C59.1785 44.7179 59.7896 45.492 60.4822 46.205C62.1119 47.8347 64.149 48.9144 66.3695 49.3625C64.8009 50.87 62.8657 51.9904 60.7063 52.5608ZM68.59 46.5513C66.3695 46.5309 64.2305 45.655 62.6416 44.066C61.9897 43.4141 61.4397 42.6604 61.0322 41.8456C61.9693 42.09 62.9471 42.2122 63.9453 42.2122C66.2473 42.2122 68.4677 41.5196 70.3419 40.277C70.3012 42.5586 69.6697 44.6975 68.59 46.5513ZM57.3858 24.0208C48.5447 24.0208 41.374 31.2118 41.374 40.0325C41.374 48.8533 48.5651 56.0443 57.3858 56.0443C66.2269 56.0443 73.3976 48.8533 73.3976 40.0325C73.3976 31.2118 66.2065 24.0208 57.3858 24.0208Z" fill="#3E3F46"/>
<path fill-rule="evenodd" clip-rule="evenodd" d="M57.3858 35.6939C59.7896 35.6939 61.7249 37.6292 61.7249 40.033C61.7249 42.4368 59.7896 44.3721 57.3858 44.3721C54.982 44.3721 53.0468 42.4368 53.0468 40.033C53.0468 37.6292 54.982 35.6939 57.3858 35.6939Z" fill="#F0F0F3"/>
<path fill-rule="evenodd" clip-rule="evenodd" d="M59.1988 36.1013C59.4636 36.6513 59.6062 37.2624 59.6062 37.9143C59.6062 40.3181 57.6506 42.2534 55.2671 42.2534C54.6153 42.2534 54.0041 42.1108 53.4541 41.8459C54.1467 43.333 55.6542 44.3719 57.4061 44.3719C59.8099 44.3719 61.7452 42.4163 61.7452 40.0329C61.7248 38.281 60.6859 36.7735 59.1988 36.1013Z" fill="#ABABB5"/>
<path d="M24.8123 74.0526V70.0394H73.4587V71.7099H71.1975L71.6253 72.8099H68.3863V72.6062C68.4067 72.1988 68.0807 71.8729 67.6733 71.8729C67.2863 71.8729 66.9807 72.1988 66.9807 72.5858V74.0526H35.7516V72.5858C35.7516 72.3006 35.5071 72.0562 35.222 72.0562C34.9368 72.0562 34.6923 72.3006 34.6923 72.5858V74.0526H30.0069V71.7099H28.2754V74.0526H24.8123Z" fill="#3F3E45"/>
<path d="M68.4066 72.8097V74.7042H72.8272C73.4179 74.7042 73.9068 74.2153 73.9068 73.6246V72.6467L68.4066 72.8097Z" fill="#FBA615"/>
<path d="M67.001 74.0525H35.7516V75.947H67.001V74.0525Z" fill="#F2994A"/>
<path d="M34.7126 74.0525H30.0272V75.8044H34.7126V74.0525Z" fill="#F2994A"/>
<path d="M10.2874 20.7819V81.4881H18.7414V74.6026H15.4413C14.0968 74.6026 12.9967 73.5433 12.9967 72.2395V20.7819H10.2874Z" fill="#3F3E45"/>
<path fill-rule="evenodd" clip-rule="evenodd" d="M7.43549 54.8428H3.6057C2.62788 54.8428 1.87415 54.0687 1.87415 53.1113V33.4938C1.87415 32.516 2.64825 31.7623 3.6057 31.7623H7.43549V54.8428Z" fill="#6E6E78"/>
<path fill-rule="evenodd" clip-rule="evenodd" d="M4.44108 44.1683V30.7845H2.60767C1.62985 30.7845 0.896484 31.5586 0.896484 32.5364V47.8148C2.85212 47.8148 4.44108 46.1851 4.44108 44.1683Z" fill="#ABABB5"/>
<path fill-rule="evenodd" clip-rule="evenodd" d="M10.2874 9.19081V9.17044C10.2874 8.60004 10.0022 8.09077 9.57444 7.80557C9.30961 7.62223 8.98367 7.5 8.63736 7.5H1.65006C0.733356 7.5 0 8.25373 0 9.19081C0 10.1279 0.71299 10.8816 1.62969 10.8816H7.00767V81.5901C7.00767 82.5068 7.72066 83.2402 8.61699 83.2402H8.6781C9.5948 83.2402 10.3078 82.5068 10.2874 81.5901V9.19081Z" fill="#ABABB5"/>
<path d="M14.5247 79.9602C15.6385 79.9602 16.5414 79.0572 16.5414 77.9434C16.5414 76.8296 15.6385 75.9267 14.5247 75.9267C13.4109 75.9267 12.5079 76.8296 12.5079 77.9434C12.5079 79.0572 13.4109 79.9602 14.5247 79.9602Z" fill="#A5A5AD"/>
<path d="M14.6877 76.4972L14.7896 77.6788L15.9304 77.7806V78.1066L14.7896 78.2084L14.6877 79.4103H14.3414L14.2395 78.2084L13.0988 78.1066V77.7806L14.2395 77.6788L14.3414 76.4972H14.6877Z" fill="#3B3C43"/>
</svg>
